<svg width="150" height="38" viewBox="0 0 150 38" fill="none" xmlns="http://www.w3.org/2000/svg">
<g clip-path="url(#clip0_535_311)">
<path fill-rule="evenodd" clip-rule="evenodd" d="M124.985 5.07318C127.943 4.05646 131.171 4.11878 134.086 5.24902C137.002 6.37932 139.414 8.50393 140.884 11.2411C142.199 13.6887 142.683 16.4806 142.278 19.2066C144.234 19.5893 146.027 20.5794 147.387 22.0471C148.973 23.7587 149.855 25.9962 149.857 28.3203V28.3212C149.857 30.791 148.864 33.1576 147.099 34.9008C145.334 36.6438 142.943 37.6212 140.452 37.6212H126.291V34.7575H140.451C142.13 34.752 143.741 34.1082 144.95 32.9625C146.16 31.8168 146.874 30.2574 146.949 28.6084C147.023 26.9595 146.453 25.3439 145.353 24.0967C144.253 22.8497 142.707 22.0666 141.035 21.9127C141.034 21.9127 141.034 21.9126 141.033 21.9125L138.789 21.7181L139.285 19.535C139.285 19.5346 139.285 19.5342 139.285 19.5339C139.285 19.5338 139.285 19.5339 139.285 19.5339C139.815 17.1836 139.477 14.7232 138.332 12.5961C137.186 10.4683 135.307 8.81267 133.031 7.93047C130.755 7.04818 128.235 6.99845 125.925 7.79038C123.615 8.58218 121.67 10.1624 120.44 12.2432C120.439 12.2434 120.439 12.2436 120.439 12.2438L119.563 13.7313L117.964 13.0528L117.964 13.0527C116.808 12.562 115.547 12.3622 114.294 12.4717C113.04 12.5811 111.835 12.9963 110.785 13.6791C110.314 13.9858 109.88 14.3421 109.492 14.7405L109.225 15.0149H105.561L106.728 13.5441C107.424 12.666 108.262 11.9022 109.211 11.2851C110.659 10.3441 112.319 9.77311 114.043 9.62273C115.508 9.49498 116.981 9.67409 118.367 10.1452C119.95 7.79004 122.273 6.00566 124.985 5.07318Z" fill="white"/>
<path d="M49.3261 34.9203L48.6605 33.9404L51.6734 34.8853V37.37L45.5424 37.685L44.8767 34.3254L45.2271 34.4304C44.2928 35.5736 43.2768 36.4251 42.1791 36.9851C41.0813 37.545 39.9485 37.825 38.7807 37.825C37.2859 37.825 36.048 37.3467 35.067 36.3901C34.0861 35.4336 33.5956 34.0571 33.5956 32.2607C33.5956 30.9308 33.8759 29.8809 34.4364 29.111C35.0203 28.3178 35.8612 27.7462 36.9589 27.3962C38.0567 27.0463 39.388 26.8713 40.9528 26.8713H44.7716L44.4213 27.2563V24.9465C44.4213 23.85 44.1527 23.0684 43.6155 22.6018C43.1016 22.1352 42.3426 21.9019 41.3382 21.9019C40.8477 21.9019 40.3222 21.9486 39.7617 22.0419C39.2011 22.1352 38.5939 22.2752 37.9399 22.4619L38.4304 21.9369L37.9749 24.7716H34.9269L34.6466 19.6622C36.2349 19.1956 37.683 18.8573 38.9909 18.6473C40.3222 18.414 41.5368 18.2974 42.6345 18.2974C44.8067 18.2974 46.465 18.764 47.6094 19.6972C48.7539 20.6304 49.3261 22.0769 49.3261 24.0367V34.9203ZM38.5355 31.7707C38.5355 32.6339 38.734 33.2755 39.131 33.6955C39.5515 34.0921 40.077 34.2904 40.7076 34.2904C41.2915 34.2904 41.9338 34.1154 42.6345 33.7655C43.3352 33.3922 44.0009 32.8906 44.6315 32.2607L44.4213 33.1006V29.111L44.7716 29.461H41.7586C40.5441 29.461 39.7033 29.6476 39.2362 30.0209C38.769 30.3942 38.5355 30.9775 38.5355 31.7707Z" fill="white"/>
<path d="M53.094 37.405V34.8853L55.9318 34.0804L55.4413 34.8153V21.377L56.0019 22.2169L53.094 21.342V18.8223L59.2601 18.5423L59.8907 21.8669L59.2601 21.7269C60.3111 20.6304 61.3505 19.7905 62.3781 19.2073C63.4058 18.6007 64.5036 18.2974 65.6714 18.2974C66.4188 18.2974 67.2129 18.414 68.0538 18.6473L67.7384 25.1215H64.9006L64.3751 21.342L64.8306 22.2869C64.6904 22.2402 64.5386 22.2052 64.3751 22.1819C64.235 22.1586 64.0948 22.1469 63.9547 22.1469C63.2307 22.1469 62.5066 22.3685 61.7826 22.8118C61.0819 23.2551 60.4746 23.8267 59.9608 24.5266L60.3461 23.1968V34.8153L59.7856 34.0804L63.254 34.8853V37.405H53.094Z" fill="white"/>
<path d="M77.5175 37.825C75.9059 37.825 74.4461 37.4517 73.1381 36.7051C71.8535 35.9352 70.8375 34.8387 70.0901 33.4155C69.3427 31.9924 68.969 30.2659 68.969 28.2361C68.969 26.393 69.2376 24.8416 69.7748 23.5817C70.312 22.3219 71.0361 21.307 71.947 20.5371C72.8579 19.7439 73.8739 19.1723 74.995 18.8223C76.1161 18.4723 77.2722 18.2974 78.4634 18.2974C79.5845 18.2974 80.7173 18.4373 81.8618 18.7173C83.0062 18.9973 83.9405 19.3122 84.6645 19.6622L84.5244 24.8066H81.3713L80.8458 21.9369L81.2311 22.2169C80.8808 22.0769 80.4487 21.9719 79.9349 21.9019C79.4444 21.8319 78.9889 21.7969 78.5685 21.7969C77.5642 21.7969 76.7234 22.0536 76.046 22.5668C75.392 23.0568 74.9016 23.7684 74.5746 24.7016C74.2476 25.6115 74.0841 26.6963 74.0841 27.9562C74.0841 29.3093 74.2709 30.4525 74.6446 31.3858C75.0183 32.319 75.5439 33.0306 76.2212 33.5205C76.9219 33.9871 77.7277 34.2204 78.6386 34.2204C79.3626 34.2204 80.1567 34.0688 81.0209 33.7655C81.8851 33.4622 82.7843 33.0072 83.7186 32.4006L85.3652 34.8853C84.0573 35.8885 82.7493 36.6351 81.4413 37.1251C80.1334 37.5917 78.8254 37.825 77.5175 37.825Z" fill="white"/>
<path d="M93.736 37.825C92.1712 37.825 90.8632 37.3234 89.8122 36.3202C88.7611 35.2936 88.2356 33.7538 88.2356 31.7007V21.482L88.691 22.1819L85.9233 21.342V18.8223L93.1404 18.5773V30.8958C93.1404 31.9924 93.3857 32.8089 93.8762 33.3455C94.3667 33.8588 95.0206 34.1154 95.8381 34.1154C96.4687 34.1154 97.1577 33.9521 97.9052 33.6255C98.6759 33.2755 99.435 32.7389 100.182 32.0157L99.8321 32.8906V21.377L100.287 22.1819L97.5198 21.342V18.8223L104.737 18.5773V34.8153L104.141 33.9754L107.084 34.8853V37.37L100.918 37.65L100.252 34.2204L100.953 34.4654C99.7853 35.5852 98.5708 36.4251 97.3096 36.9851C96.0717 37.545 94.8805 37.825 93.736 37.825Z" fill="white"/>
<path d="M114.086 23.4417C114.086 23.9783 114.32 24.4099 114.787 24.7366C115.254 25.0632 115.85 25.3432 116.574 25.5765C117.321 25.8098 118.104 26.0547 118.921 26.3114C119.762 26.568 120.544 26.9063 121.268 27.3263C122.016 27.7229 122.623 28.2595 123.09 28.9361C123.557 29.6126 123.791 30.4875 123.791 31.5607C123.791 32.9372 123.417 34.0921 122.67 35.0253C121.922 35.9585 120.906 36.6584 119.622 37.1251C118.337 37.5917 116.889 37.825 115.277 37.825C114.343 37.825 113.35 37.7433 112.299 37.58C111.272 37.4167 110.209 37.195 109.111 36.9151L109.322 31.6307H112.405L112.79 34.7104L112.37 34.1154C112.837 34.2554 113.35 34.3721 113.911 34.4654C114.472 34.5354 114.962 34.5704 115.382 34.5704C115.99 34.5704 116.55 34.4887 117.064 34.3254C117.601 34.1621 118.033 33.9288 118.36 33.6255C118.711 33.2989 118.886 32.8906 118.886 32.4006C118.886 31.8407 118.652 31.3974 118.185 31.0708C117.718 30.7442 117.111 30.4642 116.363 30.2309C115.639 29.9976 114.869 29.7526 114.051 29.496C113.257 29.2394 112.486 28.9011 111.739 28.4811C111.015 28.0612 110.419 27.5012 109.952 26.8013C109.485 26.1014 109.251 25.1915 109.251 24.0717C109.251 22.7185 109.59 21.622 110.267 20.7821C110.945 19.9188 111.844 19.2889 112.965 18.8923C114.11 18.4957 115.359 18.2974 116.714 18.2974C117.671 18.2974 118.687 18.3907 119.762 18.5773C120.836 18.7406 121.934 18.9856 123.055 19.3122L122.88 24.0017H119.762L119.201 21.237L119.867 21.9719C118.769 21.6686 117.8 21.517 116.959 21.517C116.095 21.517 115.394 21.6919 114.857 22.0419C114.343 22.3685 114.086 22.8351 114.086 23.4417Z" fill="white"/>
<mask id="path-3-inside-1_535_311" fill="white">
<path fill-rule="evenodd" clip-rule="evenodd" d="M1.29758 18.2222C0.580945 18.2222 0 18.8025 0 19.5183V36.5501C0 37.2659 0.580945 37.8462 1.29758 37.8462H27.3694C28.086 37.8462 28.667 37.2659 28.667 36.5501V19.5183C28.667 18.8025 28.086 18.2222 27.3694 18.2222H1.29758ZM4.63466 22.6621C4.52956 22.7595 4.52956 22.9173 4.63466 23.0146L6.75682 24.9798L4.63469 26.9451C4.52959 27.0424 4.52959 27.2002 4.63469 27.2975L5.07123 27.7018C5.17634 27.7991 5.34675 27.7991 5.45185 27.7018L7.57398 25.7366L7.57513 25.7376L8.39229 24.9809L8.39115 24.9798L8.39233 24.9788L7.57516 24.222L7.57398 24.2231L5.45182 22.2579C5.34672 22.1605 5.17631 22.1605 5.0712 22.2579L4.63466 22.6621ZM9.17084 26.7201C9.02751 26.7201 8.91132 26.8362 8.91132 26.9794V27.4978C8.91132 27.641 9.02751 27.7571 9.17084 27.7571H13.0636C13.2069 27.7571 13.3231 27.641 13.3231 27.4978V26.9794C13.3231 26.8362 13.2069 26.7201 13.0636 26.7201H9.17084Z"/>
</mask>
<path fill-rule="evenodd" clip-rule="evenodd" d="M1.29758 18.2222C0.580945 18.2222 0 18.8025 0 19.5183V36.5501C0 37.2659 0.580945 37.8462 1.29758 37.8462H27.3694C28.086 37.8462 28.667 37.2659 28.667 36.5501V19.5183C28.667 18.8025 28.086 18.2222 27.3694 18.2222H1.29758ZM4.63466 22.6621C4.52956 22.7595 4.52956 22.9173 4.63466 23.0146L6.75682 24.9798L4.63469 26.9451C4.52959 27.0424 4.52959 27.2002 4.63469 27.2975L5.07123 27.7018C5.17634 27.7991 5.34675 27.7991 5.45185 27.7018L7.57398 25.7366L7.57513 25.7376L8.39229 24.9809L8.39115 24.9798L8.39233 24.9788L7.57516 24.222L7.57398 24.2231L5.45182 22.2579C5.34672 22.1605 5.17631 22.1605 5.0712 22.2579L4.63466 22.6621ZM9.17084 26.7201C9.02751 26.7201 8.91132 26.8362 8.91132 26.9794V27.4978C8.91132 27.641 9.02751 27.7571 9.17084 27.7571H13.0636C13.2069 27.7571 13.3231 27.641 13.3231 27.4978V26.9794C13.3231 26.8362 13.2069 26.7201 13.0636 26.7201H9.17084Z" fill="white" stroke="white" stroke-width="14" mask="url(#path-3-inside-1_535_311)"/>
</g>
<defs>
<clipPath id="clip0_535_311">
<rect width="150" height="37.8472" fill="white" transform="translate(0 0.0761719)"/>
</clipPath>
</defs>
</svg>
