<svg width="192" height="47" viewBox="0 0 192 47" fill="none" xmlns="http://www.w3.org/2000/svg">
<path fill-rule="evenodd" clip-rule="evenodd" d="M159.981 6.20535C163.767 4.94275 167.899 5.02015 171.63 6.42371C175.362 7.82736 178.45 10.4658 180.332 13.8649C182.015 16.9045 182.634 20.3714 182.116 23.7567C184.62 24.232 186.915 25.4615 188.655 27.2841C190.685 29.4097 191.814 32.1883 191.817 35.0744V35.0755C191.817 38.1426 190.546 41.0815 188.287 43.2464C186.028 45.4108 182.968 46.6246 179.779 46.6246H161.652V43.0684H179.777C181.927 43.0615 183.989 42.262 185.537 40.8392C187.084 39.4165 187.999 37.48 188.094 35.4322C188.19 33.3846 187.46 31.3782 186.051 29.8294C184.643 28.2808 182.665 27.3083 180.525 27.1173C180.524 27.1172 180.523 27.1171 180.522 27.1171L177.65 26.8756L178.285 24.1645C178.285 24.1641 178.285 24.1636 178.285 24.1631C178.285 24.1631 178.285 24.1632 178.285 24.1631C178.963 21.2445 178.531 18.1891 177.065 15.5475C175.599 12.9052 173.193 10.8492 170.28 9.75363C167.367 8.65798 164.14 8.59622 161.184 9.57967C158.227 10.5629 155.738 12.5253 154.163 15.1093C154.162 15.1096 154.162 15.1098 154.162 15.1101L153.041 16.9573L150.994 16.1147L150.993 16.1146C149.515 15.5052 147.9 15.2572 146.296 15.3931C144.692 15.529 143.149 16.0445 141.805 16.8924C141.202 17.2733 140.647 17.7158 140.15 18.2106L139.808 18.5514H135.118L136.611 16.7248C137.503 15.6343 138.576 14.6859 139.791 13.9195C141.643 12.7509 143.768 12.0419 145.975 11.8551C147.85 11.6965 149.736 11.9189 151.509 12.504C153.536 9.57925 156.509 7.36334 159.981 6.20535Z" fill="#249CFF"/>
<path d="M63.1375 43.2706L62.2854 42.0537L66.142 43.2271V46.3127L58.2943 46.7038L57.4422 42.5318L57.8907 42.6621C56.6948 44.0818 55.3944 45.1393 53.9892 45.8346C52.5841 46.53 51.1341 46.8777 49.6393 46.8777C47.726 46.8777 46.1415 46.2837 44.8858 45.0958C43.6302 43.908 43.0024 42.1986 43.0024 39.9677C43.0024 38.3163 43.3611 37.0125 44.0786 36.0564C44.826 35.0713 45.9023 34.3615 47.3074 33.9269C48.7126 33.4923 50.4166 33.275 52.4197 33.275H57.3077L56.8593 33.7531V30.8848C56.8593 29.5231 56.5155 28.5525 55.8278 27.973C55.1701 27.3936 54.1985 27.1039 52.913 27.1039C52.2851 27.1039 51.6125 27.1618 50.895 27.2777C50.1775 27.3936 49.4002 27.5674 48.5631 27.7992L49.1909 27.1473L48.6079 30.6675H44.7065L44.3477 24.3225C46.3807 23.743 48.2342 23.3229 49.9084 23.0622C51.6125 22.7725 53.1671 22.6276 54.5722 22.6276C57.3526 22.6276 59.4752 23.207 60.9401 24.3659C62.405 25.5249 63.1375 27.3212 63.1375 29.7549V43.2706ZM49.3254 39.3593C49.3254 40.4313 49.5795 41.228 50.0878 41.7495C50.6259 42.242 51.2986 42.4883 52.1058 42.4883C52.8532 42.4883 53.6753 42.271 54.5722 41.8364C55.4691 41.3729 56.3211 40.75 57.1283 39.9677L56.8593 41.0107V36.0564L57.3077 36.491H53.4511C51.8965 36.491 50.8202 36.7228 50.2223 37.1863C49.6244 37.6499 49.3254 38.3742 49.3254 39.3593Z" fill="#1D2338"/>
<path d="M67.9603 46.3562V43.2271L71.5927 42.2276L70.9649 43.1402V26.452L71.6824 27.495L67.9603 26.4085V23.2795L75.8529 22.9318L76.6601 27.0604L75.8529 26.8866C77.1983 25.5249 78.5286 24.4818 79.8441 23.7575C81.1595 23.0042 82.5646 22.6276 84.0594 22.6276C85.0161 22.6276 86.0326 22.7725 87.1088 23.0622L86.7052 31.1021H83.0729L82.4002 26.4085L82.9832 27.5819C82.8038 27.524 82.6095 27.4805 82.4002 27.4515C82.2208 27.4226 82.0414 27.4081 81.8621 27.4081C80.9353 27.4081 80.0085 27.6833 79.0817 28.2338C78.1848 28.7843 77.4075 29.4941 76.7498 30.3633L77.2431 28.7118V43.1402L76.5256 42.2276L80.9652 43.2271V46.3562H67.9603Z" fill="#1D2338"/>
<path d="M99.2224 46.8777C97.1596 46.8777 95.2911 46.4141 93.6169 45.487C91.9726 44.5309 90.6721 43.1692 89.7154 41.4018C88.7587 39.6345 88.2804 37.4905 88.2804 34.9699C88.2804 32.6811 88.6242 30.7544 89.3118 29.1899C89.9994 27.6254 90.9262 26.3651 92.0922 25.409C93.2581 24.4239 94.5586 23.7141 95.9936 23.2795C97.4286 22.8449 98.9085 22.6276 100.433 22.6276C101.868 22.6276 103.318 22.8014 104.783 23.1491C106.248 23.4968 107.444 23.8879 108.371 24.3225L108.191 30.7109H104.155L103.483 27.1473L103.976 27.495C103.527 27.3212 102.974 27.1908 102.317 27.1039C101.689 27.0169 101.106 26.9735 100.568 26.9735C99.2822 26.9735 98.2059 27.2922 97.3389 27.9296C96.5018 28.538 95.874 29.4217 95.4555 30.5806C95.0369 31.7105 94.8277 33.0577 94.8277 34.6222C94.8277 36.3027 95.0668 37.7223 95.5452 38.8812C96.0235 40.0401 96.6962 40.9238 97.5632 41.5322C98.46 42.1117 99.4915 42.4014 100.657 42.4014C101.584 42.4014 102.601 42.2131 103.707 41.8364C104.813 41.4598 105.964 40.8948 107.16 40.1415L109.268 43.2271C107.593 44.4729 105.919 45.4001 104.245 46.0085C102.571 46.5879 100.897 46.8777 99.2224 46.8777Z" fill="#1D2338"/>
<path d="M119.982 46.8777C117.979 46.8777 116.305 46.2547 114.96 45.0089C113.614 43.7341 112.942 41.8219 112.942 39.2724V26.5824L113.525 27.4515L109.982 26.4085V23.2795L119.22 22.9753V38.2728C119.22 39.6345 119.534 40.6486 120.162 41.3149C120.789 41.9523 121.626 42.271 122.673 42.271C123.48 42.271 124.362 42.0682 125.319 41.6626C126.305 41.228 127.277 40.5616 128.234 39.6635L127.785 40.75V26.452L128.368 27.4515L124.825 26.4085V23.2795L134.063 22.9753V43.1402L133.301 42.0972L137.068 43.2271V46.3127L129.175 46.6604L128.323 42.4014L129.22 42.7056C127.725 44.0963 126.171 45.1393 124.556 45.8346C122.972 46.53 121.447 46.8777 119.982 46.8777Z" fill="#1D2338"/>
<path d="M146.03 29.0161C146.03 29.6824 146.329 30.2184 146.927 30.624C147.525 31.0296 148.288 31.3773 149.214 31.667C150.171 31.9568 151.173 32.261 152.219 32.5797C153.295 32.8984 154.297 33.3185 155.223 33.84C156.18 34.3325 156.957 34.9989 157.555 35.8391C158.153 36.6793 158.452 37.7658 158.452 39.0985C158.452 40.8079 157.974 42.242 157.017 43.4009C156.061 44.5599 154.76 45.429 153.116 46.0085C151.471 46.5879 149.618 46.8777 147.555 46.8777C146.359 46.8777 145.089 46.7763 143.743 46.5734C142.428 46.3706 141.068 46.0954 139.662 45.7477L139.932 39.1854H143.878L144.371 43.0098L143.833 42.271C144.431 42.4449 145.089 42.5897 145.806 42.7056C146.524 42.7925 147.151 42.836 147.69 42.836C148.467 42.836 149.184 42.7346 149.842 42.5318C150.53 42.329 151.083 42.0392 151.501 41.6626C151.95 41.257 152.174 40.75 152.174 40.1415C152.174 39.4462 151.875 38.8957 151.277 38.4901C150.679 38.0845 149.902 37.7368 148.945 37.4471C148.018 37.1574 147.032 36.8531 145.986 36.5344C144.969 36.2157 143.982 35.7956 143.026 35.2741C142.099 34.7526 141.337 34.0573 140.739 33.1881C140.141 32.3189 139.842 31.189 139.842 29.7983C139.842 28.1179 140.275 26.7562 141.142 25.7132C142.009 24.6412 143.16 23.8589 144.595 23.3664C146.06 22.8739 147.66 22.6276 149.394 22.6276C150.619 22.6276 151.92 22.7435 153.295 22.9753C154.67 23.1781 156.075 23.4823 157.511 23.8879L157.286 29.7114H153.295L152.578 26.2781L153.43 27.1908C152.025 26.8141 150.784 26.6258 149.708 26.6258C148.601 26.6258 147.705 26.8431 147.017 27.2777C146.359 27.6833 146.03 28.2628 146.03 29.0161Z" fill="#1D2338"/>
<mask id="path-3-inside-1_301_240" fill="white">
<path fill-rule="evenodd" clip-rule="evenodd" d="M1.6609 22.5342C0.74361 22.5342 0 23.2549 0 24.1438V45.2945C0 46.1835 0.74361 46.9041 1.6609 46.9041H35.0328C35.9501 46.9041 36.6937 46.1835 36.6937 45.2945V24.1438C36.6937 23.2549 35.9501 22.5342 35.0328 22.5342H1.6609ZM5.93237 28.0479C5.79783 28.1688 5.79783 28.3648 5.93237 28.4857L8.64873 30.9262L5.93241 33.3666C5.79787 33.4875 5.79787 33.6835 5.93241 33.8043L6.49117 34.3064C6.62571 34.4272 6.84384 34.4272 6.97837 34.3064L9.6947 31.8659L9.69617 31.8672L10.7421 30.9275L10.7407 30.9262L10.7422 30.9248L9.69621 29.9851L9.6947 29.9864L6.97834 27.5459C6.8438 27.425 6.62567 27.425 6.49114 27.5459L5.93237 28.0479ZM11.7387 33.0873C11.5552 33.0873 11.4065 33.2315 11.4065 33.4092V34.0531C11.4065 34.2309 11.5552 34.375 11.7387 34.375H16.7214C16.9048 34.375 17.0536 34.2309 17.0536 34.0531V33.4092C17.0536 33.2315 16.9048 33.0873 16.7214 33.0873H11.7387Z"/>
</mask>
<path fill-rule="evenodd" clip-rule="evenodd" d="M1.6609 22.5342C0.74361 22.5342 0 23.2549 0 24.1438V45.2945C0 46.1835 0.74361 46.9041 1.6609 46.9041H35.0328C35.9501 46.9041 36.6937 46.1835 36.6937 45.2945V24.1438C36.6937 23.2549 35.9501 22.5342 35.0328 22.5342H1.6609ZM5.93237 28.0479C5.79783 28.1688 5.79783 28.3648 5.93237 28.4857L8.64873 30.9262L5.93241 33.3666C5.79787 33.4875 5.79787 33.6835 5.93241 33.8043L6.49117 34.3064C6.62571 34.4272 6.84384 34.4272 6.97837 34.3064L9.6947 31.8659L9.69617 31.8672L10.7421 30.9275L10.7407 30.9262L10.7422 30.9248L9.69621 29.9851L9.6947 29.9864L6.97834 27.5459C6.8438 27.425 6.62567 27.425 6.49114 27.5459L5.93237 28.0479ZM11.7387 33.0873C11.5552 33.0873 11.4065 33.2315 11.4065 33.4092V34.0531C11.4065 34.2309 11.5552 34.375 11.7387 34.375H16.7214C16.9048 34.375 17.0536 34.2309 17.0536 34.0531V33.4092C17.0536 33.2315 16.9048 33.0873 16.7214 33.0873H11.7387Z" fill="#249CFF" stroke="#249CFF" stroke-width="14" mask="url(#path-3-inside-1_301_240)"/>
</svg>
