<svg width="52" height="18" viewBox="0 0 52 18" fill="none" xmlns="http://www.w3.org/2000/svg">
<path d="M6.19827 18C3.57313 18 0.316895 16.5981 0.316895 11.316C0.316895 6.03372 3.57313 4.65678 6.19827 4.65678C8.0159 4.65678 9.37871 5.2073 10.5398 6.40913L8.31855 8.61206C7.63695 7.88601 7.05639 7.58575 6.19827 7.58575C5.41574 7.58575 4.80996 7.86123 4.33069 8.43695C3.82546 9.06263 3.59855 9.93904 3.59855 11.316C3.59855 12.6929 3.82546 13.5941 4.33069 14.2199C4.80996 14.7959 5.41574 15.0712 6.19827 15.0712C7.05639 15.0712 7.63695 14.7707 8.31855 14.0447L10.5398 16.2227C9.37871 17.4245 8.0159 18 6.19827 18ZM17.908 8.16147C17.5295 7.78608 17.0248 7.58575 16.3685 7.58575C15.7123 7.58575 15.2326 7.78608 14.854 8.16147C14.1723 8.83755 14.0967 9.96396 14.0967 11.316C14.0967 12.6677 14.1723 13.8195 14.854 14.4952C15.2326 14.8709 15.7123 15.0712 16.3685 15.0712C17.0248 15.0712 17.5295 14.8709 17.908 14.4952C18.5898 13.8195 18.6654 12.6677 18.6654 11.316C18.6654 9.96396 18.5898 8.83755 17.908 8.16147ZM20.4576 16.3978C19.6498 17.2491 18.312 18 16.3685 18C14.4247 18 13.1122 17.2491 12.3044 16.3978C11.118 15.1713 10.8154 13.6942 10.8154 11.316C10.8154 8.9627 11.118 7.48556 12.3044 6.2588C13.1122 5.4076 14.4247 4.65678 16.3685 4.65678C18.312 4.65678 19.6498 5.4076 20.4576 6.2588C21.644 7.48556 21.9467 8.9627 21.9467 11.316C21.9467 13.6942 21.644 15.1713 20.4576 16.3978ZM28.7612 7.58575C26.7926 7.58575 26.5401 9.18804 26.5401 11.316C26.5401 13.444 26.7926 15.0712 28.7612 15.0712C30.7305 15.0712 31.0079 13.444 31.0079 11.316C31.0079 9.18804 30.7305 7.58575 28.7612 7.58575ZM31.0837 17.85V16.6235C30.1749 17.6248 29.2161 18 27.8277 18C26.5401 18 25.3284 17.5496 24.5969 16.8236C23.2839 15.5216 23.2588 13.2686 23.2588 11.316C23.2588 9.3633 23.2839 7.13518 24.5969 5.83342C25.3284 5.10737 26.5148 4.65678 27.8024 4.65678C29.1402 4.65678 30.1495 5.00715 31.0079 5.95854V0H34.2896V17.85H31.0837ZM36.7114 17.85V4.80685H39.9931V17.85H36.7114ZM36.6609 2.57878V0H40.0181V2.57878H36.6609ZM46.5049 17.85C43.8294 17.85 42.6935 15.9724 42.6935 14.1197V7.66093H41.3052V5.18252H42.6935V1.32711H45.9749V5.18252H48.2972V7.66093H45.9749V13.9194C45.9749 14.6706 46.3283 15.0961 47.1108 15.0961H48.2972V17.85H46.5049ZM51.2835 17.85V0H52.0001V17.85H51.2835Z" fill="white"/>
</svg>
