<svg width="150" height="150" viewBox="0 0 150 150" fill="none" xmlns="http://www.w3.org/2000/svg">
<path d="M78 7.5L65.5 15V29.5L78 37L92 28.5V15L78 7.5Z" stroke="#249CFF" stroke-width="2"/>
<path d="M27.0377 39L11 48.661V67.339L27.0377 77L45 66.0508V48.661L27.0377 39Z" stroke="#249CFF" stroke-width="2"/>
<path d="M11 49.2941L26.8276 59L45 49" stroke="#249CFF" stroke-width="2"/>
<path d="M65 15.2353L77.569 23L92 15" stroke="#249CFF" stroke-width="2"/>
<path d="M44 83.1765L53.7759 89L65 83" stroke="#6BC4FF" stroke-width="2"/>
<path d="M78.0377 105L62 114.661V133.339L78.0377 143L96 132.051V114.661L78.0377 105Z" stroke="#249CFF" stroke-width="2"/>
<path d="M53.9057 77L44 83.1017V94.8983L53.9057 101L65 94.0847V83.1017L53.9057 77Z" stroke="#6BC4FF" stroke-width="2"/>
<path d="M35.5 43.5L65 27" stroke="#249CFF" stroke-width="2"/>
<path d="M33 35L59 20" stroke="#6BC4FF" stroke-width="2"/>
<path d="M27 77V104L62 124" stroke="#249CFF" stroke-width="2"/>
<path d="M26 113L55 130" stroke="#6BC4FF" stroke-width="2"/>
<path d="M130 84V104.5L96 123" stroke="#249CFF" stroke-width="2"/>
<path d="M131 113L104 128" stroke="#6BC4FF" stroke-width="2"/>
<path d="M106.358 34L79 50.2712V81.7288L106.358 98L137 79.5593V50.2712L106.358 34Z" stroke="#249CFF" stroke-width="2"/>
<path d="M79 50.5L106 67L137 50" stroke="#249CFF" stroke-width="2"/>
<path d="M62 115.294L77.8276 125L96 115" stroke="#249CFF" stroke-width="2"/>
</svg>
