<svg width="792" height="497" viewBox="0 0 792 497" fill="none" xmlns="http://www.w3.org/2000/svg">
<path d="M744 48H146V72H720V425H744V48Z" stroke="#6BC4FF" stroke-width="2"/>
<rect x="122" y="72" width="598" height="377" stroke="#249CFF" stroke-width="2"/>
<rect x="145.684" y="135.167" width="48.3289" height="5.89583" stroke="#249CFF" stroke-width="2"/>
<rect x="203.908" y="135.167" width="104.579" height="5.89583" stroke="#6BC4FF" stroke-width="2"/>
<rect x="145.684" y="158.854" width="48.3289" height="5.89583" stroke="#249CFF" stroke-width="2"/>
<rect x="203.908" y="158.854" width="78.9211" height="5.89583" stroke="#6BC4FF" stroke-width="2"/>
<rect x="145.684" y="182.542" width="48.3289" height="5.89584" stroke="#249CFF" stroke-width="2"/>
<rect x="145.684" y="222.021" width="69.0526" height="5.89581" stroke="#249CFF" stroke-width="2"/>
<rect x="203.908" y="182.542" width="91.75" height="5.89584" stroke="#6BC4FF" stroke-width="2"/>
<rect x="224.631" y="222.021" width="162.803" height="5.89581" stroke="#6BC4FF" stroke-width="2"/>
<rect x="397.329" y="269.396" width="100.632" height="5.89584" stroke="#6BC4FF" stroke-width="2"/>
<rect x="358.842" y="316.771" width="100.632" height="5.89584" stroke="#6BC4FF" stroke-width="2"/>
<rect x="305.553" y="340.458" width="153.921" height="5.89587" stroke="#6BC4FF" stroke-width="2"/>
<rect x="145.684" y="387.833" width="69.0526" height="5.89587" stroke="#249CFF" stroke-width="2"/>
<rect x="224.631" y="387.833" width="124.316" height="5.89587" stroke="#6BC4FF" stroke-width="2"/>
<rect x="170.355" y="245.708" width="69.0526" height="5.89581" stroke="#249CFF" stroke-width="2"/>
<rect x="170.355" y="411.521" width="69.0526" height="5.89587" stroke="#249CFF" stroke-width="2"/>
<rect x="249.303" y="245.708" width="99.6447" height="5.89581" stroke="#8B95B8" stroke-width="2"/>
<rect x="249.303" y="411.521" width="99.6447" height="5.89587" stroke="#8B95B8" stroke-width="2"/>
<rect x="203.908" y="269.396" width="183.526" height="5.89584" stroke="#8B95B8" stroke-width="2"/>
<rect x="170.355" y="293.083" width="69.0526" height="5.89584" stroke="#249CFF" stroke-width="2"/>
<rect x="249.303" y="293.083" width="138.132" height="5.89584" stroke="#8B95B8" stroke-width="2"/>
<rect x="203.908" y="316.771" width="145.039" height="5.89584" stroke="#8B95B8" stroke-width="2"/>
<rect x="203.908" y="340.458" width="91.75" height="5.89587" stroke="#8B95B8" stroke-width="2"/>
<rect x="203.908" y="364.146" width="183.526" height="5.89587" stroke="#8B95B8" stroke-width="2"/>
<path d="M704.21 90.7394C704.21 94.0029 701.565 96.6483 698.302 96.6483C695.04 96.6483 692.395 94.0029 692.395 90.7394C692.395 87.4759 695.04 84.8306 698.302 84.8306C701.565 84.8306 704.21 87.4759 704.21 90.7394Z" stroke="#249CFF" stroke-width="2"/>
<path d="M682.5 90.7394C682.5 94.0029 679.855 96.6483 676.592 96.6483C673.329 96.6483 670.684 94.0029 670.684 90.7394C670.684 87.4759 673.329 84.8306 676.592 84.8306C679.855 84.8306 682.5 87.4759 682.5 90.7394Z" stroke="#84D5FF" stroke-width="2"/>
<path d="M660.789 90.7394C660.789 94.0029 658.144 96.6483 654.882 96.6483C651.619 96.6483 648.974 94.0029 648.974 90.7394C648.974 87.4759 651.619 84.8306 654.882 84.8306C658.144 84.8306 660.789 87.4759 660.789 90.7394Z" stroke="#D6F5FF" stroke-width="2"/>
<line x1="121" y1="108" x2="721" y2="108" stroke="#249CFF" stroke-width="2"/>
<line x1="721" y1="83" x2="744" y2="83" stroke="#6BC4FF" stroke-width="2"/>
<line x1="543" y1="137" x2="721" y2="137" stroke="#249CFF" stroke-width="2"/>
<line x1="543" y1="161" x2="721" y2="161" stroke="#249CFF" stroke-width="2"/>
<line x1="543" y1="184" x2="721" y2="184" stroke="#249CFF" stroke-width="2"/>
<line x1="543" y1="208" x2="721" y2="208" stroke="#249CFF" stroke-width="2"/>
<line x1="543" y1="232" x2="721" y2="232" stroke="#249CFF" stroke-width="2"/>
<line x1="544" y1="109" x2="544" y2="450" stroke="#249CFF" stroke-width="2"/>
<circle cx="631.5" cy="341.5" r="55.5" stroke="#6BC4FF" stroke-width="2"/>
<path d="M636 347L642.5 366M636 347H627M636 347L631.5 333.696M642.5 366H661.5L643.5 313H624.5M642.5 366L624.5 313M642.5 366H636L624.421 355M627 347H616L624.421 355M627 347L631.5 333.696M631.5 333.696L624.5 313M624.5 313H620L603.5 362L602 366H620.5L624.421 355" stroke="#249CFF" stroke-width="2" stroke-linejoin="round"/>
<path d="M134.592 462.092L146 473.5L134.592 484.908H124.589L135.29 474.207L135.997 473.5L135.29 472.793L124.589 462.092H134.592Z" stroke="#249CFF" stroke-width="2"/>
<path d="M173.592 462.092L185 473.5L173.592 484.908H163.589L174.29 474.207L174.997 473.5L174.29 472.793L163.589 462.092H173.592Z" stroke="#249CFF" stroke-width="2"/>
<path d="M212.592 462.092L224 473.5L212.592 484.908H202.589L213.29 474.207L213.997 473.5L213.29 472.793L202.589 462.092H212.592Z" stroke="#249CFF" stroke-width="2"/>
<path d="M251.592 462.092L263 473.5L251.592 484.908H241.589L252.29 474.207L252.997 473.5L252.29 472.793L241.589 462.092H251.592Z" stroke="#249CFF" stroke-width="2"/>
<path d="M290.592 462.092L302 473.5L290.592 484.908H280.589L291.29 474.207L291.997 473.5L291.29 472.793L280.589 462.092H290.592Z" stroke="#249CFF" stroke-width="2"/>
<path d="M329.592 462.092L341 473.5L329.592 484.908H319.589L330.29 474.207L330.997 473.5L330.29 472.793L319.589 462.092H329.592Z" stroke="#249CFF" stroke-width="2"/>
<path d="M368.592 461.092L380 472.5L368.592 483.908H358.589L369.29 473.207L369.997 472.5L369.29 471.793L358.589 461.092H368.592Z" stroke="#249CFF" stroke-width="2"/>
<path d="M407.592 461.092L419 472.5L407.592 483.908H397.589L408.29 473.207L408.997 472.5L408.29 471.793L397.589 461.092H407.592Z" stroke="#249CFF" stroke-width="2"/>
<path d="M27.3905 235.743C27.3905 236.432 27.2127 237.042 26.8572 237.572C26.5016 238.097 25.9874 238.508 25.3146 238.803C24.6473 239.098 23.8541 239.246 22.9351 239.246C21.1355 239.246 19.6996 238.724 18.6274 237.679L19.809 236.358C20.6787 237.14 21.7098 237.531 22.9023 237.531C23.5314 237.531 24.0456 237.389 24.4449 237.105C24.8497 236.815 25.0521 236.41 25.0521 235.89C25.0521 235.573 24.9864 235.31 24.8551 235.103C24.7238 234.889 24.4996 234.701 24.1823 234.536C23.8705 234.367 23.4247 234.195 22.8449 234.019C21.9861 233.757 21.2886 233.472 20.7526 233.166C20.222 232.854 19.8254 232.488 19.5628 232.067C19.3057 231.645 19.1772 231.145 19.1772 230.565C19.1772 229.931 19.355 229.375 19.7105 228.899C20.0661 228.418 20.5529 228.049 21.171 227.792C21.7891 227.535 22.4811 227.406 23.2469 227.406C24.0674 227.406 24.7977 227.526 25.4377 227.767C26.0832 228.002 26.6575 228.35 27.1608 228.809L26.0367 230.081C25.6538 229.753 25.238 229.509 24.7895 229.351C24.3409 229.187 23.8787 229.105 23.4028 229.105C22.8339 229.105 22.3744 229.219 22.0244 229.449C21.6743 229.674 21.4992 229.996 21.4992 230.417C21.4992 230.691 21.5731 230.921 21.7208 231.107C21.8739 231.293 22.1256 231.465 22.4756 231.624C22.8257 231.782 23.3372 231.965 24.01 232.173C24.743 232.398 25.3529 232.652 25.8397 232.936C26.3266 233.221 26.7068 233.59 26.9803 234.044C27.2538 234.498 27.3905 235.064 27.3905 235.743ZM31.2609 235.316C31.3211 236.098 31.5508 236.678 31.9502 237.055C32.3549 237.433 32.8719 237.622 33.5009 237.622C33.9002 237.622 34.2832 237.559 34.6496 237.433C35.0161 237.307 35.3854 237.121 35.7573 236.875L36.6599 238.114C36.2387 238.469 35.7464 238.748 35.183 238.951C34.6196 239.148 34.0124 239.246 33.3614 239.246C32.437 239.246 31.6493 239.055 30.9984 238.672C30.3529 238.289 29.8633 237.753 29.5296 237.064C29.2014 236.374 29.0373 235.576 29.0373 234.668C29.0373 233.798 29.1987 233.016 29.5214 232.321C29.8496 231.621 30.3201 231.071 30.9327 230.672C31.5508 230.267 32.2784 230.065 33.1153 230.065C33.903 230.065 34.5895 230.24 35.1748 230.59C35.7601 230.94 36.2114 231.446 36.5286 232.108C36.8459 232.764 37.0045 233.546 37.0045 234.454C37.0045 234.766 36.9908 235.053 36.9635 235.316H31.2609ZM33.1235 231.591C32.582 231.591 32.1443 231.785 31.8107 232.173C31.4825 232.556 31.291 233.142 31.2363 233.929H34.8958C34.8849 233.18 34.729 232.603 34.4281 232.198C34.1327 231.793 33.6979 231.591 33.1235 231.591ZM43.6319 237.507C43.9929 237.507 44.3375 237.441 44.6657 237.31C44.9994 237.178 45.3385 236.992 45.6831 236.752L46.6678 238.138C46.2739 238.478 45.8035 238.748 45.2565 238.951C44.7095 239.148 44.1378 239.246 43.5416 239.246C42.6445 239.246 41.8678 239.057 41.2113 238.68C40.5604 238.303 40.0599 237.772 39.7098 237.088C39.3652 236.404 39.1929 235.611 39.1929 234.709C39.1929 233.812 39.3679 233.013 39.718 232.313C40.0736 231.607 40.5823 231.057 41.2442 230.664C41.906 230.264 42.6828 230.065 43.5744 230.065C44.1925 230.065 44.7532 230.152 45.2565 230.327C45.7652 230.502 46.2329 230.768 46.6596 231.123L45.6996 232.452C45.0267 231.993 44.3402 231.763 43.6401 231.763C42.9672 231.763 42.4366 232.004 42.0483 232.485C41.6654 232.966 41.4739 233.708 41.4739 234.709C41.4739 235.688 41.6654 236.399 42.0483 236.842C42.4366 237.285 42.9645 237.507 43.6319 237.507ZM51.2684 236.333C51.2684 236.793 51.3587 237.121 51.5392 237.318C51.7197 237.515 51.9932 237.613 52.3597 237.613C52.6934 237.613 53.0216 237.512 53.3443 237.31C53.6725 237.107 53.9378 236.845 54.1402 236.522V230.311H56.3064V239H54.4192L54.3043 237.933C53.998 238.355 53.6042 238.68 53.1228 238.91C52.6414 239.134 52.1327 239.246 51.5966 239.246C50.7707 239.246 50.1471 239.014 49.7259 238.549C49.3101 238.084 49.1023 237.433 49.1023 236.596V230.311H51.2684V236.333ZM65.3132 230.073C65.5758 230.073 65.8137 230.095 66.0271 230.138C66.2459 230.177 66.4619 230.234 66.6753 230.311L66.2896 233.699H64.8455V232.001C64.293 232.045 63.8089 232.294 63.3932 232.748C62.9829 233.202 62.6575 233.817 62.4168 234.594V237.498H64.1481V239H59.0281V237.498H60.2506V231.804H59.0281V230.311H61.8999L62.3019 232.305C62.6247 231.555 63.0267 230.997 63.5081 230.631C63.9949 230.259 64.5966 230.073 65.3132 230.073ZM72.3836 225.929C72.6462 225.929 72.8787 225.987 73.0811 226.102C73.2835 226.211 73.4421 226.364 73.557 226.561C73.6718 226.758 73.7293 226.977 73.7293 227.217C73.7293 227.458 73.6718 227.677 73.557 227.874C73.4421 228.071 73.2835 228.227 73.0811 228.342C72.8787 228.456 72.6462 228.514 72.3836 228.514C72.1211 228.514 71.8858 228.456 71.678 228.342C71.4756 228.227 71.317 228.071 71.2021 227.874C71.0872 227.677 71.0298 227.458 71.0298 227.217C71.0298 226.977 71.0872 226.758 71.2021 226.561C71.317 226.364 71.4756 226.211 71.678 226.102C71.8858 225.987 72.1211 225.929 72.3836 225.929ZM69.159 230.311H73.7867V237.466H76.0759V239H69.077V237.466H71.6205V231.845H69.159V230.311ZM86.133 238.516C85.7939 238.74 85.3918 238.918 84.9269 239.049C84.4674 239.181 83.9805 239.246 83.4663 239.246C82.7716 239.246 82.1836 239.123 81.7022 238.877C81.2263 238.631 80.8681 238.283 80.6274 237.835C80.3867 237.381 80.2663 236.845 80.2663 236.227V231.845H78.3792V230.311H80.2663V228.399L82.4325 228.136V230.311H85.3043L85.0828 231.845H82.4325V236.218C82.4325 236.672 82.5419 237.003 82.7607 237.211C82.9795 237.414 83.3323 237.515 83.8192 237.515C84.3771 237.515 84.8995 237.384 85.3863 237.121L86.133 238.516ZM93.4004 239.016C93.0284 240.127 92.4841 240.977 91.7675 241.568C91.0564 242.164 90.0937 242.504 88.8793 242.586L88.6086 241.018C89.1829 240.936 89.6451 240.813 89.9952 240.649C90.3453 240.491 90.6243 240.28 90.8321 240.017C91.0455 239.76 91.2342 239.421 91.3983 239H90.6598L87.8127 230.311H90.1019L92.0711 237.556L94.1224 230.311H96.346L93.4004 239.016Z" fill="#249CFF"/>
<path d="M35.9625 189.652H37.9481L36.4794 201H34.0096L33.0168 192.729L31.9666 201H29.4476L28.0855 189.652H30.2271L30.8999 198.957L31.983 190.965H34.0999L35.1255 198.957L35.9625 189.652ZM41.1047 197.316C41.1649 198.098 41.3946 198.678 41.7939 199.055C42.1987 199.433 42.7156 199.622 43.3447 199.622C43.744 199.622 44.1269 199.559 44.4934 199.433C44.8599 199.307 45.2291 199.121 45.6011 198.875L46.5037 200.114C46.0825 200.469 45.5901 200.748 45.0267 200.951C44.4633 201.148 43.8561 201.246 43.2052 201.246C42.2807 201.246 41.4931 201.055 40.8421 200.672C40.1966 200.289 39.7071 199.753 39.3734 199.064C39.0452 198.374 38.8811 197.576 38.8811 196.668C38.8811 195.798 39.0425 195.016 39.3652 194.321C39.6934 193.621 40.1638 193.071 40.7765 192.672C41.3946 192.267 42.1221 192.065 42.959 192.065C43.7467 192.065 44.4332 192.24 45.0185 192.59C45.6038 192.94 46.0551 193.446 46.3724 194.108C46.6896 194.764 46.8483 195.546 46.8483 196.454C46.8483 196.766 46.8346 197.053 46.8072 197.316H41.1047ZM42.9672 193.591C42.4257 193.591 41.9881 193.785 41.6544 194.173C41.3262 194.556 41.1348 195.142 41.0801 195.929H44.7396C44.7286 195.18 44.5727 194.603 44.2719 194.198C43.9765 193.793 43.5416 193.591 42.9672 193.591ZM51.2684 193.287C51.5583 192.899 51.903 192.598 52.3023 192.385C52.7016 192.171 53.1283 192.065 53.5823 192.065C54.6763 192.065 55.4859 192.467 56.011 193.271C56.5416 194.069 56.8069 195.191 56.8069 196.635C56.8069 197.532 56.6729 198.331 56.4048 199.031C56.1368 199.725 55.743 200.27 55.2233 200.664C54.7036 201.052 54.0773 201.246 53.3443 201.246C52.8794 201.246 52.4582 201.156 52.0807 200.975C51.7033 200.795 51.3833 200.527 51.1207 200.171L51.0223 201H49.1023V188.84L51.2684 188.61V193.287ZM52.7864 199.63C53.3553 199.63 53.7901 199.389 54.091 198.908C54.3973 198.421 54.5505 197.671 54.5505 196.659C54.5505 195.604 54.4137 194.846 54.1402 194.387C53.8722 193.922 53.4756 193.689 52.9505 193.689C52.3105 193.689 51.7498 194.069 51.2684 194.83V198.719C51.6623 199.326 52.1683 199.63 52.7864 199.63ZM74.9354 201L74.2298 198.399H70.4964L69.7908 201H67.4688L71.0216 189.652H73.7785L77.3231 201H74.9354ZM72.359 191.334L70.8985 196.717H73.8113L72.359 191.334ZM86.6581 193.271C86.6581 194.545 86.2588 195.497 85.4602 196.126C84.6616 196.755 83.573 197.07 82.1946 197.07H80.8899V201H78.6417V189.652H81.9812C83.48 189.652 84.6342 189.956 85.4438 190.563C86.2534 191.165 86.6581 192.067 86.6581 193.271ZM84.3279 193.287C84.3279 191.958 83.573 191.293 82.0633 191.293H80.8899V195.404H82.1289C83.5949 195.404 84.3279 194.698 84.3279 193.287ZM88.5511 189.652H95.6075V191.334H93.2034V199.318H95.6075V201H88.5511V199.318H90.9552V191.334H88.5511V189.652Z" fill="#249CFF"/>
<path d="M17.2514 265.652L17.8914 277H15.8893L15.676 271.773C15.6541 271.248 15.6432 270.707 15.6432 270.149C15.6432 269.279 15.6733 268.428 15.7334 267.597L14.2319 275.031H12.4104L10.8021 267.597C10.8733 268.51 10.9088 269.476 10.9088 270.493C10.9088 271.057 10.9033 271.489 10.8924 271.79L10.7365 277H8.76728L9.40728 265.652H11.9016L13.3621 273.144L14.757 265.652H17.2514ZM21.4172 273.316C21.4774 274.098 21.7071 274.678 22.1064 275.055C22.5112 275.433 23.0281 275.622 23.6572 275.622C24.0565 275.622 24.4394 275.559 24.8059 275.433C25.1724 275.307 25.5416 275.121 25.9136 274.875L26.8162 276.114C26.395 276.469 25.9026 276.748 25.3392 276.951C24.7758 277.148 24.1686 277.246 23.5177 277.246C22.5932 277.246 21.8056 277.055 21.1546 276.672C20.5091 276.289 20.0196 275.753 19.6859 275.064C19.3577 274.374 19.1936 273.576 19.1936 272.668C19.1936 271.798 19.355 271.016 19.6777 270.321C20.0059 269.621 20.4763 269.071 21.089 268.672C21.7071 268.267 22.4346 268.065 23.2715 268.065C24.0592 268.065 24.7457 268.24 25.331 268.59C25.9163 268.94 26.3676 269.446 26.6849 270.108C27.0021 270.764 27.1608 271.546 27.1608 272.454C27.1608 272.766 27.1471 273.053 27.1197 273.316H21.4172ZM23.2797 269.591C22.7382 269.591 22.3006 269.785 21.9669 270.173C21.6387 270.556 21.4473 271.142 21.3926 271.929H25.0521C25.0411 271.18 24.8852 270.603 24.5844 270.198C24.289 269.793 23.8541 269.591 23.2797 269.591ZM32.7214 275.646C33.2411 275.646 33.6514 275.559 33.9522 275.384C34.2585 275.203 34.4117 274.951 34.4117 274.629C34.4117 274.404 34.3597 274.221 34.2558 274.079C34.1519 273.937 33.9522 273.803 33.6568 273.677C33.3669 273.546 32.9266 273.401 32.3358 273.242C31.7341 273.089 31.2308 272.908 30.8261 272.701C30.4213 272.487 30.1067 272.214 29.8825 271.88C29.6582 271.541 29.5461 271.125 29.5461 270.633C29.5461 270.13 29.6883 269.684 29.9727 269.295C30.2626 268.907 30.6784 268.606 31.2199 268.393C31.7669 268.174 32.4124 268.065 33.1563 268.065C34.4801 268.065 35.6096 268.404 36.545 269.082L35.6589 270.403C34.8657 269.9 34.0479 269.648 33.2055 269.648C32.2319 269.648 31.745 269.927 31.745 270.485C31.745 270.677 31.8025 270.835 31.9173 270.961C32.0377 271.087 32.2428 271.207 32.5327 271.322C32.8281 271.437 33.2794 271.579 33.8866 271.749C34.5102 271.924 35.0189 272.115 35.4127 272.323C35.812 272.531 36.1211 272.807 36.3399 273.152C36.5642 273.496 36.6763 273.937 36.6763 274.473C36.6763 275.075 36.4958 275.586 36.1348 276.007C35.7792 276.423 35.3033 276.735 34.7071 276.943C34.1108 277.145 33.4517 277.246 32.7296 277.246C31.942 277.246 31.239 277.134 30.6209 276.91C30.0028 276.685 29.4695 276.376 29.0209 275.983L30.145 274.719C30.5006 275.003 30.8972 275.23 31.3348 275.4C31.7724 275.564 32.2346 275.646 32.7214 275.646ZM42.5652 275.646C43.0849 275.646 43.4951 275.559 43.796 275.384C44.1023 275.203 44.2554 274.951 44.2554 274.629C44.2554 274.404 44.2035 274.221 44.0996 274.079C43.9956 273.937 43.796 273.803 43.5006 273.677C43.2107 273.546 42.7703 273.401 42.1796 273.242C41.5778 273.089 41.0746 272.908 40.6698 272.701C40.265 272.487 39.9505 272.214 39.7262 271.88C39.5019 271.541 39.3898 271.125 39.3898 270.633C39.3898 270.13 39.532 269.684 39.8165 269.295C40.1064 268.907 40.5221 268.606 41.0637 268.393C41.6107 268.174 42.2561 268.065 43.0001 268.065C44.3238 268.065 45.4534 268.404 46.3888 269.082L45.5026 270.403C44.7095 269.9 43.8917 269.648 43.0493 269.648C42.0756 269.648 41.5888 269.927 41.5888 270.485C41.5888 270.677 41.6462 270.835 41.7611 270.961C41.8814 271.087 42.0866 271.207 42.3765 271.322C42.6719 271.437 43.1231 271.579 43.7303 271.749C44.3539 271.924 44.8626 272.115 45.2565 272.323C45.6558 272.531 45.9649 272.807 46.1837 273.152C46.4079 273.496 46.5201 273.937 46.5201 274.473C46.5201 275.075 46.3396 275.586 45.9785 276.007C45.623 276.423 45.1471 276.735 44.5508 276.943C43.9546 277.145 43.2954 277.246 42.5734 277.246C41.7857 277.246 41.0828 277.134 40.4647 276.91C39.8466 276.685 39.3132 276.376 38.8647 275.983L39.9888 274.719C40.3443 275.003 40.7409 275.23 41.1785 275.4C41.6161 275.564 42.0784 275.646 42.5652 275.646ZM56.0356 274.711C56.0356 275.034 56.0821 275.274 56.1751 275.433C56.2736 275.586 56.4349 275.701 56.6592 275.777L56.1915 277.23C55.7101 277.181 55.3081 277.063 54.9854 276.877C54.6681 276.685 54.4247 276.412 54.2551 276.056C53.9378 276.445 53.5303 276.74 53.0325 276.943C52.5348 277.145 52.0042 277.246 51.4407 277.246C50.8609 277.246 50.3522 277.134 49.9146 276.91C49.477 276.68 49.1406 276.36 48.9054 275.95C48.6701 275.539 48.5525 275.066 48.5525 274.53C48.5525 273.918 48.7139 273.395 49.0366 272.963C49.3594 272.531 49.8325 272.203 50.4561 271.978C51.0797 271.754 51.8346 271.642 52.7207 271.642H53.9351V271.174C53.9351 270.671 53.7792 270.302 53.4674 270.067C53.1556 269.826 52.6961 269.706 52.0889 269.706C51.7936 269.706 51.4353 269.747 51.0141 269.829C50.5929 269.905 50.1717 270.015 49.7505 270.157L49.2336 268.672C49.7642 268.475 50.3084 268.324 50.8664 268.221C51.4298 268.117 51.9522 268.065 52.4336 268.065C53.6315 268.065 54.5313 268.322 55.133 268.836C55.7348 269.345 56.0356 270.078 56.0356 271.035V274.711ZM52.1464 275.679C52.4855 275.679 52.8192 275.586 53.1474 275.4C53.4811 275.209 53.7436 274.949 53.9351 274.621V272.93H53.0818C52.2941 272.93 51.717 273.056 51.3505 273.308C50.984 273.554 50.8007 273.92 50.8007 274.407C50.8007 274.817 50.9156 275.132 51.1454 275.351C51.3751 275.57 51.7088 275.679 52.1464 275.679ZM66.9788 268.778C66.6616 268.893 66.3006 268.975 65.8958 269.025C65.491 269.068 65.0124 269.09 64.4599 269.09C65.0069 269.325 65.4144 269.624 65.6824 269.985C65.9505 270.34 66.0845 270.781 66.0845 271.306C66.0845 271.869 65.9395 272.375 65.6496 272.824C65.3652 273.267 64.9549 273.614 64.4188 273.866C63.8882 274.112 63.2647 274.235 62.5481 274.235C62.1378 274.235 61.7686 274.194 61.4404 274.112C61.3365 274.172 61.2517 274.259 61.186 274.374C61.1259 274.489 61.0958 274.607 61.0958 274.727C61.0958 274.913 61.1669 275.061 61.3091 275.17C61.4568 275.274 61.7276 275.326 62.1214 275.326H63.5983C64.2274 275.326 64.7853 275.433 65.2722 275.646C65.7645 275.859 66.1447 276.155 66.4127 276.532C66.6862 276.904 66.8229 277.323 66.8229 277.788C66.8229 278.373 66.6506 278.874 66.306 279.289C65.9669 279.71 65.4636 280.03 64.7963 280.249C64.1289 280.468 63.3139 280.577 62.3512 280.577C61.3282 280.577 60.5214 280.474 59.9306 280.266C59.3453 280.058 58.9324 279.754 58.6917 279.355C58.451 278.961 58.3306 278.461 58.3306 277.853H60.2588C60.2588 278.154 60.3163 278.389 60.4312 278.559C60.5515 278.734 60.7648 278.863 61.0712 278.945C61.3775 279.032 61.8178 279.076 62.3922 279.076C63.2182 279.076 63.8035 278.977 64.1481 278.781C64.4927 278.589 64.665 278.307 64.665 277.935C64.665 277.624 64.531 277.38 64.2629 277.205C64.0004 277.03 63.6312 276.943 63.1553 276.943H61.7194C61.1559 276.943 60.6855 276.866 60.3081 276.713C59.9361 276.56 59.6599 276.355 59.4794 276.097C59.2988 275.84 59.2086 275.556 59.2086 275.244C59.2086 274.932 59.2906 274.637 59.4547 274.358C59.6243 274.079 59.865 273.841 60.1768 273.644C59.6462 273.365 59.2606 273.029 59.0199 272.635C58.7792 272.236 58.6588 271.751 58.6588 271.183C58.6588 270.564 58.8175 270.02 59.1347 269.55C59.452 269.079 59.8924 268.716 60.4558 268.458C61.0247 268.201 61.6729 268.073 62.4004 268.073C63.0349 268.078 63.5874 268.04 64.0578 267.958C64.5337 267.876 64.9412 267.766 65.2804 267.63C65.625 267.493 66.0106 267.312 66.4373 267.088L66.9788 268.778ZM62.4414 269.517C61.9382 269.517 61.5471 269.665 61.2681 269.96C60.9946 270.255 60.8578 270.657 60.8578 271.166C60.8578 271.686 60.9973 272.096 61.2763 272.397C61.5553 272.692 61.9464 272.84 62.4496 272.84C62.9419 272.84 63.3194 272.695 63.5819 272.405C63.8445 272.11 63.9758 271.689 63.9758 271.142C63.9758 270.058 63.4643 269.517 62.4414 269.517ZM72.3836 263.929C72.6462 263.929 72.8787 263.987 73.0811 264.102C73.2835 264.211 73.4421 264.364 73.557 264.561C73.6718 264.758 73.7293 264.977 73.7293 265.217C73.7293 265.458 73.6718 265.677 73.557 265.874C73.4421 266.071 73.2835 266.227 73.0811 266.342C72.8787 266.456 72.6462 266.514 72.3836 266.514C72.1211 266.514 71.8858 266.456 71.678 266.342C71.4756 266.227 71.317 266.071 71.2021 265.874C71.0872 265.677 71.0298 265.458 71.0298 265.217C71.0298 264.977 71.0872 264.758 71.2021 264.561C71.317 264.364 71.4756 264.211 71.678 264.102C71.8858 263.987 72.1211 263.929 72.3836 263.929ZM69.159 268.311H73.7867V275.466H76.0759V277H69.077V275.466H71.6205V269.845H69.159V268.311ZM78.6335 277V268.311H80.5207L80.6766 269.386C81.0486 268.948 81.467 268.62 81.932 268.401C82.3969 268.177 82.8975 268.065 83.4335 268.065C84.2103 268.065 84.8038 268.289 85.214 268.737C85.6298 269.186 85.8376 269.821 85.8376 270.641V277H83.6715V271.486C83.6715 271.027 83.6414 270.671 83.5812 270.419C83.5265 270.162 83.4226 269.976 83.2694 269.862C83.1217 269.741 82.9029 269.681 82.613 269.681C81.9785 269.681 81.374 270.067 80.7997 270.838V277H78.6335ZM96.5101 268.778C96.1928 268.893 95.8318 268.975 95.427 269.025C95.0222 269.068 94.5436 269.09 93.9911 269.09C94.5381 269.325 94.9457 269.624 95.2137 269.985C95.4817 270.34 95.6157 270.781 95.6157 271.306C95.6157 271.869 95.4708 272.375 95.1809 272.824C94.8964 273.267 94.4862 273.614 93.9501 273.866C93.4195 274.112 92.7959 274.235 92.0793 274.235C91.6691 274.235 91.2998 274.194 90.9716 274.112C90.8677 274.172 90.7829 274.259 90.7173 274.374C90.6571 274.489 90.627 274.607 90.627 274.727C90.627 274.913 90.6981 275.061 90.8404 275.17C90.988 275.274 91.2588 275.326 91.6527 275.326H93.1296C93.7586 275.326 94.3166 275.433 94.8034 275.646C95.2957 275.859 95.6759 276.155 95.9439 276.532C96.2174 276.904 96.3542 277.323 96.3542 277.788C96.3542 278.373 96.1819 278.874 95.8373 279.289C95.4981 279.71 94.9949 280.03 94.3275 280.249C93.6602 280.468 92.8451 280.577 91.8824 280.577C90.8595 280.577 90.0527 280.474 89.4619 280.266C88.8766 280.058 88.4636 279.754 88.2229 279.355C87.9822 278.961 87.8619 278.461 87.8619 277.853H89.7901C89.7901 278.154 89.8475 278.389 89.9624 278.559C90.0827 278.734 90.2961 278.863 90.6024 278.945C90.9087 279.032 91.3491 279.076 91.9234 279.076C92.7494 279.076 93.3347 278.977 93.6793 278.781C94.0239 278.589 94.1962 278.307 94.1962 277.935C94.1962 277.624 94.0622 277.38 93.7942 277.205C93.5316 277.03 93.1624 276.943 92.6865 276.943H91.2506C90.6872 276.943 90.2168 276.866 89.8393 276.713C89.4674 276.56 89.1911 276.355 89.0106 276.097C88.8301 275.84 88.7398 275.556 88.7398 275.244C88.7398 274.932 88.8219 274.637 88.986 274.358C89.1556 274.079 89.3962 273.841 89.708 273.644C89.1774 273.365 88.7918 273.029 88.5511 272.635C88.3104 272.236 88.1901 271.751 88.1901 271.183C88.1901 270.564 88.3487 270.02 88.666 269.55C88.9833 269.079 89.4236 268.716 89.987 268.458C90.5559 268.201 91.2041 268.073 91.9316 268.073C92.5662 268.078 93.1186 268.04 93.5891 267.958C94.065 267.876 94.4725 267.766 94.8116 267.63C95.1562 267.493 95.5419 267.312 95.9686 267.088L96.5101 268.778ZM91.9727 269.517C91.4694 269.517 91.0783 269.665 90.7993 269.96C90.5258 270.255 90.3891 270.657 90.3891 271.166C90.3891 271.686 90.5286 272.096 90.8075 272.397C91.0865 272.692 91.4776 272.84 91.9809 272.84C92.4732 272.84 92.8506 272.695 93.1132 272.405C93.3757 272.11 93.507 271.689 93.507 271.142C93.507 270.058 92.9956 269.517 91.9727 269.517Z" fill="#249CFF"/>
<path d="M17.5468 349.743C17.5468 350.432 17.369 351.042 17.0134 351.572C16.6579 352.097 16.1437 352.508 15.4709 352.803C14.8035 353.098 14.0104 353.246 13.0914 353.246C11.2917 353.246 9.85582 352.724 8.78369 351.679L9.96522 350.358C10.835 351.14 11.8661 351.531 13.0586 351.531C13.6876 351.531 14.2018 351.389 14.6011 351.105C15.0059 350.815 15.2083 350.41 15.2083 349.89C15.2083 349.573 15.1427 349.31 15.0114 349.103C14.8801 348.889 14.6558 348.701 14.3386 348.536C14.0268 348.367 13.581 348.195 13.0011 348.019C12.1423 347.757 11.4449 347.472 10.9088 347.166C10.3782 346.854 9.98163 346.488 9.71907 346.067C9.46198 345.645 9.33343 345.145 9.33343 344.565C9.33343 343.931 9.51121 343.375 9.86676 342.899C10.2223 342.418 10.7092 342.049 11.3273 341.792C11.9454 341.535 12.6374 341.406 13.4032 341.406C14.2237 341.406 14.9539 341.526 15.5939 341.767C16.2394 342.002 16.8138 342.35 17.317 342.809L16.1929 344.081C15.81 343.753 15.3943 343.509 14.9457 343.351C14.4972 343.187 14.035 343.105 13.5591 343.105C12.9902 343.105 12.5307 343.219 12.1806 343.449C11.8305 343.674 11.6555 343.996 11.6555 344.417C11.6555 344.691 11.7293 344.921 11.877 345.107C12.0302 345.293 12.2818 345.465 12.6319 345.624C12.982 345.782 13.4934 345.965 14.1662 346.173C14.8992 346.398 15.5092 346.652 15.996 346.936C16.4828 347.221 16.863 347.59 17.1365 348.044C17.41 348.498 17.5468 349.064 17.5468 349.743ZM23.9444 351.507C24.3054 351.507 24.65 351.441 24.9782 351.31C25.3119 351.178 25.651 350.992 25.9956 350.752L26.9803 352.138C26.5864 352.478 26.116 352.748 25.569 352.951C25.022 353.148 24.4503 353.246 23.8541 353.246C22.957 353.246 22.1803 353.057 21.5238 352.68C20.8729 352.303 20.3724 351.772 20.0223 351.088C19.6777 350.404 19.5054 349.611 19.5054 348.709C19.5054 347.812 19.6804 347.013 20.0305 346.313C20.3861 345.607 20.8948 345.057 21.5567 344.664C22.2185 344.264 22.9953 344.065 23.8869 344.065C24.505 344.065 25.0657 344.152 25.569 344.327C26.0777 344.502 26.5454 344.768 26.9721 345.123L26.0121 346.452C25.3392 345.993 24.6527 345.763 23.9526 345.763C23.2797 345.763 22.7491 346.004 22.3608 346.485C21.9779 346.966 21.7864 347.708 21.7864 348.709C21.7864 349.688 21.9779 350.399 22.3608 350.842C22.7491 351.285 23.277 351.507 23.9444 351.507ZM35.782 344.073C36.0445 344.073 36.2825 344.095 36.4958 344.138C36.7146 344.177 36.9307 344.234 37.144 344.311L36.7584 347.699H35.3143V346.001C34.7618 346.045 34.2777 346.294 33.862 346.748C33.4517 347.202 33.1262 347.817 32.8855 348.594V351.498H34.6168V353H29.4968V351.498H30.7194V345.804H29.4968V344.311H32.3686L32.7707 346.305C33.0934 345.555 33.4955 344.997 33.9768 344.631C34.4637 344.259 35.0654 344.073 35.782 344.073ZM42.8524 339.929C43.1149 339.929 43.3474 339.987 43.5498 340.102C43.7522 340.211 43.9108 340.364 44.0257 340.561C44.1406 340.758 44.198 340.977 44.198 341.217C44.198 341.458 44.1406 341.677 44.0257 341.874C43.9108 342.071 43.7522 342.227 43.5498 342.342C43.3474 342.456 43.1149 342.514 42.8524 342.514C42.5898 342.514 42.3546 342.456 42.1467 342.342C41.9443 342.227 41.7857 342.071 41.6708 341.874C41.556 341.677 41.4985 341.458 41.4985 341.217C41.4985 340.977 41.556 340.758 41.6708 340.561C41.7857 340.364 41.9443 340.211 42.1467 340.102C42.3546 339.987 42.5898 339.929 42.8524 339.929ZM39.6278 344.311H44.2554V351.466H46.5447V353H39.5457V351.466H42.0893V345.845H39.6278V344.311ZM53.5905 344.065C55.7019 344.065 56.7577 345.588 56.7577 348.635C56.7577 349.532 56.6264 350.328 56.3638 351.023C56.1067 351.717 55.7265 352.262 55.2233 352.655C54.7255 353.049 54.1238 353.246 53.4182 353.246C52.5375 353.246 51.8209 352.932 51.2684 352.303V356.348L49.1023 356.577V344.311H51.0059L51.1207 345.369C51.4544 344.937 51.8346 344.612 52.2613 344.393C52.6879 344.174 53.131 344.065 53.5905 344.065ZM52.9587 345.689C52.3132 345.689 51.7498 346.069 51.2684 346.83V350.719C51.6677 351.31 52.1765 351.605 52.7946 351.605C53.358 351.605 53.7819 351.37 54.0664 350.899C54.3563 350.424 54.5012 349.677 54.5012 348.659C54.5012 347.593 54.3727 346.832 54.1156 346.378C53.864 345.919 53.4783 345.689 52.9587 345.689ZM66.4455 352.516C66.1064 352.74 65.7043 352.918 65.2394 353.049C64.7799 353.181 64.293 353.246 63.7788 353.246C63.0841 353.246 62.4961 353.123 62.0147 352.877C61.5388 352.631 61.1806 352.283 60.9399 351.835C60.6992 351.381 60.5788 350.845 60.5788 350.227V345.845H58.6917V344.311H60.5788V342.399L62.745 342.136V344.311H65.6168L65.3953 345.845H62.745V350.218C62.745 350.672 62.8544 351.003 63.0732 351.211C63.292 351.414 63.6448 351.515 64.1317 351.515C64.6896 351.515 65.212 351.384 65.6988 351.121L66.4455 352.516ZM72.3836 339.929C72.6462 339.929 72.8787 339.987 73.0811 340.102C73.2835 340.211 73.4421 340.364 73.557 340.561C73.6718 340.758 73.7293 340.977 73.7293 341.217C73.7293 341.458 73.6718 341.677 73.557 341.874C73.4421 342.071 73.2835 342.227 73.0811 342.342C72.8787 342.456 72.6462 342.514 72.3836 342.514C72.1211 342.514 71.8858 342.456 71.678 342.342C71.4756 342.227 71.317 342.071 71.2021 341.874C71.0872 341.677 71.0298 341.458 71.0298 341.217C71.0298 340.977 71.0872 340.758 71.2021 340.561C71.317 340.364 71.4756 340.211 71.678 340.102C71.8858 339.987 72.1211 339.929 72.3836 339.929ZM69.159 344.311H73.7867V351.466H76.0759V353H69.077V351.466H71.6205V345.845H69.159V344.311ZM78.6335 353V344.311H80.5207L80.6766 345.386C81.0486 344.948 81.467 344.62 81.932 344.401C82.3969 344.177 82.8975 344.065 83.4335 344.065C84.2103 344.065 84.8038 344.289 85.214 344.737C85.6298 345.186 85.8376 345.821 85.8376 346.641V353H83.6715V347.486C83.6715 347.027 83.6414 346.671 83.5812 346.419C83.5265 346.162 83.4226 345.976 83.2694 345.862C83.1217 345.741 82.9029 345.681 82.613 345.681C81.9785 345.681 81.374 346.067 80.7997 346.838V353H78.6335ZM96.5101 344.778C96.1928 344.893 95.8318 344.975 95.427 345.025C95.0222 345.068 94.5436 345.09 93.9911 345.09C94.5381 345.325 94.9457 345.624 95.2137 345.985C95.4817 346.34 95.6157 346.781 95.6157 347.306C95.6157 347.869 95.4708 348.375 95.1809 348.824C94.8964 349.267 94.4862 349.614 93.9501 349.866C93.4195 350.112 92.7959 350.235 92.0793 350.235C91.6691 350.235 91.2998 350.194 90.9716 350.112C90.8677 350.172 90.7829 350.259 90.7173 350.374C90.6571 350.489 90.627 350.607 90.627 350.727C90.627 350.913 90.6981 351.061 90.8404 351.17C90.988 351.274 91.2588 351.326 91.6527 351.326H93.1296C93.7586 351.326 94.3166 351.433 94.8034 351.646C95.2957 351.859 95.6759 352.155 95.9439 352.532C96.2174 352.904 96.3542 353.323 96.3542 353.788C96.3542 354.373 96.1819 354.874 95.8373 355.289C95.4981 355.71 94.9949 356.03 94.3275 356.249C93.6602 356.468 92.8451 356.577 91.8824 356.577C90.8595 356.577 90.0527 356.474 89.4619 356.266C88.8766 356.058 88.4636 355.754 88.2229 355.355C87.9822 354.961 87.8619 354.461 87.8619 353.853H89.7901C89.7901 354.154 89.8475 354.389 89.9624 354.559C90.0827 354.734 90.2961 354.863 90.6024 354.945C90.9087 355.032 91.3491 355.076 91.9234 355.076C92.7494 355.076 93.3347 354.977 93.6793 354.781C94.0239 354.589 94.1962 354.307 94.1962 353.935C94.1962 353.624 94.0622 353.38 93.7942 353.205C93.5316 353.03 93.1624 352.943 92.6865 352.943H91.2506C90.6872 352.943 90.2168 352.866 89.8393 352.713C89.4674 352.56 89.1911 352.355 89.0106 352.097C88.8301 351.84 88.7398 351.556 88.7398 351.244C88.7398 350.932 88.8219 350.637 88.986 350.358C89.1556 350.079 89.3962 349.841 89.708 349.644C89.1774 349.365 88.7918 349.029 88.5511 348.635C88.3104 348.236 88.1901 347.751 88.1901 347.183C88.1901 346.564 88.3487 346.02 88.666 345.55C88.9833 345.079 89.4236 344.716 89.987 344.458C90.5559 344.201 91.2041 344.073 91.9316 344.073C92.5662 344.078 93.1186 344.04 93.5891 343.958C94.065 343.876 94.4725 343.766 94.8116 343.63C95.1562 343.493 95.5419 343.312 95.9686 343.088L96.5101 344.778ZM91.9727 345.517C91.4694 345.517 91.0783 345.665 90.7993 345.96C90.5258 346.255 90.3891 346.657 90.3891 347.166C90.3891 347.686 90.5286 348.096 90.8075 348.397C91.0865 348.692 91.4776 348.84 91.9809 348.84C92.4732 348.84 92.8506 348.695 93.1132 348.405C93.3757 348.11 93.507 347.689 93.507 347.142C93.507 346.058 92.9956 345.517 91.9727 345.517Z" fill="#249CFF"/>
<path d="M17.6124 381.416H14.4288V391H12.1888V381.416H8.87394V379.652H17.8421L17.6124 381.416ZM21.4172 387.316C21.4774 388.098 21.7071 388.678 22.1064 389.055C22.5112 389.433 23.0281 389.622 23.6572 389.622C24.0565 389.622 24.4394 389.559 24.8059 389.433C25.1724 389.307 25.5416 389.121 25.9136 388.875L26.8162 390.114C26.395 390.469 25.9026 390.748 25.3392 390.951C24.7758 391.148 24.1686 391.246 23.5177 391.246C22.5932 391.246 21.8056 391.055 21.1546 390.672C20.5091 390.289 20.0196 389.753 19.6859 389.064C19.3577 388.374 19.1936 387.576 19.1936 386.668C19.1936 385.798 19.355 385.016 19.6777 384.321C20.0059 383.621 20.4763 383.071 21.089 382.672C21.7071 382.267 22.4346 382.065 23.2715 382.065C24.0592 382.065 24.7457 382.24 25.331 382.59C25.9163 382.94 26.3676 383.446 26.6849 384.108C27.0021 384.764 27.1608 385.546 27.1608 386.454C27.1608 386.766 27.1471 387.053 27.1197 387.316H21.4172ZM23.2797 383.591C22.7382 383.591 22.3006 383.785 21.9669 384.173C21.6387 384.556 21.4473 385.142 21.3926 385.929H25.0521C25.0411 385.18 24.8852 384.603 24.5844 384.198C24.289 383.793 23.8541 383.591 23.2797 383.591ZM35.5932 382.065C36.1731 382.065 36.6134 382.256 36.9143 382.639C37.2151 383.022 37.3655 383.662 37.3655 384.559V391H35.4784V384.83C35.4784 384.551 35.4647 384.337 35.4373 384.19C35.4155 384.037 35.3662 383.924 35.2896 383.853C35.2185 383.782 35.1091 383.747 34.9614 383.747C34.5621 383.747 34.1902 383.99 33.8455 384.477V391H32.2127V384.83C32.2127 384.551 32.199 384.337 32.1717 384.19C32.1498 384.037 32.1006 383.924 32.024 383.853C31.9529 383.782 31.8435 383.747 31.6958 383.747C31.4989 383.747 31.3102 383.804 31.1296 383.919C30.9491 384.028 30.7659 384.214 30.5799 384.477V391H28.6681V382.311H30.2845L30.424 383.213C30.703 382.83 30.982 382.543 31.2609 382.352C31.5454 382.16 31.879 382.065 32.262 382.065C32.612 382.065 32.9102 382.152 33.1563 382.327C33.4025 382.497 33.5775 382.765 33.6814 383.131C33.9549 382.792 34.2449 382.53 34.5512 382.344C34.863 382.158 35.2103 382.065 35.5932 382.065ZM43.7467 382.065C45.8582 382.065 46.9139 383.588 46.9139 386.635C46.9139 387.532 46.7826 388.328 46.5201 389.023C46.263 389.717 45.8828 390.262 45.3796 390.655C44.8818 391.049 44.2801 391.246 43.5744 391.246C42.6937 391.246 41.9772 390.932 41.4247 390.303V394.348L39.2585 394.577V382.311H41.1621L41.277 383.369C41.6107 382.937 41.9908 382.612 42.4175 382.393C42.8442 382.174 43.2872 382.065 43.7467 382.065ZM43.1149 383.689C42.4695 383.689 41.906 384.069 41.4247 384.83V388.719C41.824 389.31 42.3327 389.605 42.9508 389.605C43.5143 389.605 43.9382 389.37 44.2226 388.899C44.5125 388.424 44.6575 387.677 44.6575 386.659C44.6575 385.593 44.529 384.832 44.2719 384.378C44.0202 383.919 43.6346 383.689 43.1149 383.689ZM53.2377 388.473C53.2377 389.168 53.6479 389.515 54.4684 389.515C54.8842 389.515 55.319 389.425 55.773 389.244L56.3064 390.721C55.6281 391.071 54.8431 391.246 53.9515 391.246C53.0161 391.246 52.3023 390.981 51.81 390.45C51.3177 389.92 51.0715 389.184 51.0715 388.243V380.374H48.4705V378.84H53.2377V388.473ZM65.8794 388.711C65.8794 389.034 65.9259 389.274 66.0188 389.433C66.1173 389.586 66.2787 389.701 66.5029 389.777L66.0353 391.23C65.5539 391.181 65.1518 391.063 64.8291 390.877C64.5118 390.685 64.2684 390.412 64.0988 390.056C63.7816 390.445 63.3741 390.74 62.8763 390.943C62.3785 391.145 61.8479 391.246 61.2845 391.246C60.7047 391.246 60.1959 391.134 59.7583 390.91C59.3207 390.68 58.9843 390.36 58.7491 389.95C58.5139 389.539 58.3963 389.066 58.3963 388.53C58.3963 387.918 58.5576 387.395 58.8804 386.963C59.2031 386.531 59.6763 386.203 60.2999 385.978C60.9235 385.754 61.6783 385.642 62.5645 385.642H63.7788V385.174C63.7788 384.671 63.6229 384.302 63.3112 384.067C62.9994 383.826 62.5399 383.706 61.9327 383.706C61.6373 383.706 61.279 383.747 60.8578 383.829C60.4366 383.905 60.0154 384.015 59.5942 384.157L59.0773 382.672C59.6079 382.475 60.1522 382.324 60.7101 382.221C61.2735 382.117 61.7959 382.065 62.2773 382.065C63.4753 382.065 64.3751 382.322 64.9768 382.836C65.5785 383.345 65.8794 384.078 65.8794 385.035V388.711ZM61.9901 389.679C62.3293 389.679 62.6629 389.586 62.9912 389.4C63.3248 389.209 63.5874 388.949 63.7788 388.621V386.93H62.9255C62.1378 386.93 61.5607 387.056 61.1942 387.308C60.8277 387.554 60.6445 387.92 60.6445 388.407C60.6445 388.817 60.7594 389.132 60.9891 389.351C61.2188 389.57 61.5525 389.679 61.9901 389.679ZM76.2893 390.516C75.9501 390.74 75.5481 390.918 75.0831 391.049C74.6236 391.181 74.1368 391.246 73.6226 391.246C72.9279 391.246 72.3399 391.123 71.8585 390.877C71.3826 390.631 71.0243 390.283 70.7836 389.835C70.5429 389.381 70.4226 388.845 70.4226 388.227V383.845H68.5354V382.311H70.4226V380.399L72.5887 380.136V382.311H75.4605L75.239 383.845H72.5887V388.218C72.5887 388.672 72.6982 389.003 72.917 389.211C73.1358 389.414 73.4886 389.515 73.9754 389.515C74.5334 389.515 75.0558 389.384 75.5426 389.121L76.2893 390.516ZM80.4797 387.316C80.5399 388.098 80.7696 388.678 81.1689 389.055C81.5737 389.433 82.0906 389.622 82.7197 389.622C83.119 389.622 83.5019 389.559 83.8684 389.433C84.2349 389.307 84.6041 389.121 84.9761 388.875L85.8787 390.114C85.4575 390.469 84.9651 390.748 84.4017 390.951C83.8383 391.148 83.2311 391.246 82.5802 391.246C81.6557 391.246 80.8681 391.055 80.2171 390.672C79.5716 390.289 79.0821 389.753 78.7484 389.064C78.4202 388.374 78.2561 387.576 78.2561 386.668C78.2561 385.798 78.4175 385.016 78.7402 384.321C79.0684 383.621 79.5388 383.071 80.1515 382.672C80.7696 382.267 81.4971 382.065 82.334 382.065C83.1217 382.065 83.8082 382.24 84.3935 382.59C84.9788 382.94 85.4301 383.446 85.7474 384.108C86.0646 384.764 86.2233 385.546 86.2233 386.454C86.2233 386.766 86.2096 387.053 86.1822 387.316H80.4797ZM82.3422 383.591C81.8007 383.591 81.3631 383.785 81.0294 384.173C80.7012 384.556 80.5098 385.142 80.4551 385.929H84.1146C84.1036 385.18 83.9477 384.603 83.6469 384.198C83.3515 383.793 82.9166 383.591 82.3422 383.591ZM91.7839 389.646C92.3036 389.646 92.7139 389.559 93.0147 389.384C93.321 389.203 93.4742 388.951 93.4742 388.629C93.4742 388.404 93.4222 388.221 93.3183 388.079C93.2144 387.937 93.0147 387.803 92.7193 387.677C92.4294 387.546 91.9891 387.401 91.3983 387.242C90.7966 387.089 90.2933 386.908 89.8886 386.701C89.4838 386.487 89.1692 386.214 88.945 385.88C88.7207 385.541 88.6086 385.125 88.6086 384.633C88.6086 384.13 88.7508 383.684 89.0352 383.295C89.3251 382.907 89.7409 382.606 90.2824 382.393C90.8294 382.174 91.4749 382.065 92.2188 382.065C93.5426 382.065 94.6721 382.404 95.6075 383.082L94.7214 384.403C93.9282 383.9 93.1104 383.648 92.268 383.648C91.2944 383.648 90.8075 383.927 90.8075 384.485C90.8075 384.677 90.865 384.835 90.9798 384.961C91.1002 385.087 91.3053 385.207 91.5952 385.322C91.8906 385.437 92.3419 385.579 92.9491 385.749C93.5727 385.924 94.0814 386.115 94.4752 386.323C94.8745 386.531 95.1836 386.807 95.4024 387.152C95.6267 387.496 95.7388 387.937 95.7388 388.473C95.7388 389.075 95.5583 389.586 95.1973 390.007C94.8417 390.423 94.3658 390.735 93.7696 390.943C93.1733 391.145 92.5142 391.246 91.7921 391.246C91.0045 391.246 90.3015 391.134 89.6834 390.91C89.0653 390.685 88.532 390.376 88.0834 389.983L89.2075 388.719C89.5631 389.003 89.9597 389.23 90.3973 389.4C90.8349 389.564 91.2971 389.646 91.7839 389.646Z" fill="#249CFF"/>
<path d="M86.1576 151.652L86.7976 163H84.7956L84.5822 157.773C84.5604 157.248 84.5494 156.707 84.5494 156.149C84.5494 155.279 84.5795 154.428 84.6397 153.597L83.1381 161.031H81.3166L79.7084 153.597C79.7795 154.51 79.8151 155.476 79.8151 156.493C79.8151 157.057 79.8096 157.489 79.7987 157.79L79.6428 163H77.6735L78.3135 151.652H80.8079L82.2684 159.144L83.6633 151.652H86.1576ZM95.9439 163H88.9286V151.652H91.1768V161.178H96.1819L95.9439 163Z" fill="#249CFF"/>
<path d="M50.0059 427.548C50.0059 427.247 50.0797 426.968 50.2274 426.711C50.3806 426.448 50.5857 426.24 50.8428 426.087C51.1054 425.934 51.3898 425.857 51.6961 425.857C52.0079 425.857 52.2924 425.934 52.5495 426.087C52.812 426.24 53.0171 426.448 53.1648 426.711C53.318 426.968 53.3946 427.247 53.3946 427.548C53.3946 427.854 53.318 428.138 53.1648 428.401C53.0171 428.658 52.812 428.863 52.5495 429.016C52.2924 429.17 52.0079 429.246 51.6961 429.246C51.3898 429.246 51.1054 429.17 50.8428 429.016C50.5857 428.863 50.3806 428.658 50.2274 428.401C50.0797 428.138 50.0059 427.854 50.0059 427.548ZM59.8496 427.548C59.8496 427.247 59.9235 426.968 60.0712 426.711C60.2243 426.448 60.4294 426.24 60.6865 426.087C60.9491 425.934 61.2335 425.857 61.5399 425.857C61.8517 425.857 62.1361 425.934 62.3932 426.087C62.6558 426.24 62.8609 426.448 63.0086 426.711C63.1618 426.968 63.2383 427.247 63.2383 427.548C63.2383 427.854 63.1618 428.138 63.0086 428.401C62.8609 428.658 62.6558 428.863 62.3932 429.016C62.1361 429.17 61.8517 429.246 61.5399 429.246C61.2335 429.246 60.9491 429.17 60.6865 429.016C60.4294 428.863 60.2243 428.658 60.0712 428.401C59.9235 428.138 59.8496 427.854 59.8496 427.548ZM69.6934 427.548C69.6934 427.247 69.7672 426.968 69.9149 426.711C70.0681 426.448 70.2732 426.24 70.5303 426.087C70.7929 425.934 71.0773 425.857 71.3836 425.857C71.6954 425.857 71.9799 425.934 72.237 426.087C72.4995 426.24 72.7046 426.448 72.8523 426.711C73.0055 426.968 73.0821 427.247 73.0821 427.548C73.0821 427.854 73.0055 428.138 72.8523 428.401C72.7046 428.658 72.4995 428.863 72.237 429.016C71.9799 429.17 71.6954 429.246 71.3836 429.246C71.0773 429.246 70.7929 429.17 70.5303 429.016C70.2732 428.863 70.0681 428.658 69.9149 428.401C69.7672 428.138 69.6934 427.854 69.6934 427.548ZM88.4373 415.24C89.6899 415.24 90.6253 415.426 91.2434 415.798C91.8615 416.164 92.1706 416.783 92.1706 417.652C92.1706 417.795 92.1624 417.945 92.146 418.104L91.8752 420.729C91.8643 420.839 91.8588 420.915 91.8588 420.959C91.8588 421.457 92.0557 421.818 92.4496 422.042C92.8434 422.266 93.4287 422.378 94.2055 422.378V424.134C93.4287 424.134 92.8434 424.246 92.4496 424.471C92.0557 424.695 91.8588 425.059 91.8588 425.562C91.8588 425.606 91.8643 425.682 91.8752 425.792L92.146 428.401C92.1624 428.565 92.1706 428.721 92.1706 428.869C92.1706 429.738 91.8615 430.357 91.2434 430.723C90.6253 431.09 89.6899 431.273 88.4373 431.273V429.722C89.0226 429.722 89.4629 429.637 89.7583 429.468C90.0592 429.298 90.1904 429.003 90.1521 428.582L89.865 425.833C89.8486 425.685 89.8404 425.546 89.8404 425.414C89.8404 424.747 90.0318 424.249 90.4147 423.921C90.8031 423.593 91.3747 423.374 92.1296 423.265C91.3583 423.144 90.7839 422.92 90.4065 422.592C90.0291 422.264 89.8404 421.769 89.8404 421.107C89.8404 420.97 89.8486 420.828 89.865 420.68L90.1521 417.931C90.1576 417.898 90.1604 417.855 90.1604 417.8C90.1604 417.428 90.0099 417.168 89.7091 417.021C89.4137 416.867 88.9898 416.791 88.4373 416.791V415.24Z" fill="#249CFF"/>
<path d="M94.7214 112.791C94.1361 112.791 93.693 112.876 93.3921 113.045C93.0968 113.215 92.9682 113.51 93.0065 113.931L93.2937 116.68C93.3101 116.817 93.3183 116.954 93.3183 117.09C93.3183 117.747 93.1268 118.244 92.7439 118.584C92.3665 118.917 91.8195 119.142 91.1029 119.256C91.8468 119.377 92.4021 119.598 92.7686 119.921C93.1351 120.238 93.3183 120.728 93.3183 121.39C93.3183 121.526 93.3101 121.674 93.2937 121.833L93.0065 124.582C93.001 124.614 92.9983 124.658 92.9983 124.713C92.9983 125.085 93.146 125.345 93.4414 125.492C93.7422 125.645 94.1689 125.722 94.7214 125.722V127.273C93.4687 127.273 92.5333 127.087 91.9152 126.715C91.2971 126.348 90.988 125.73 90.988 124.861C90.988 124.713 90.9962 124.562 91.0127 124.409L91.2834 121.792C91.2944 121.671 91.2998 121.589 91.2998 121.546C91.2998 121.042 91.1084 120.681 90.7255 120.463C90.3426 120.244 89.7518 120.134 88.9532 120.134V118.378C89.7463 118.378 90.3344 118.269 90.7173 118.05C91.1057 117.831 91.2998 117.473 91.2998 116.975C91.2998 116.921 91.2944 116.839 91.2834 116.729L91.0127 114.112C90.9962 113.948 90.988 113.792 90.988 113.644C90.988 112.774 91.2971 112.156 91.9152 111.79C92.5333 111.423 93.4687 111.24 94.7214 111.24V112.791Z" fill="#249CFF"/>
<path d="M7.12045 305.31H2.52558V308.419H6.54609V310.052H2.52558V313.351H7.40763V315H0.277372V303.652H7.35019L7.12045 305.31ZM15.3888 306.311H17.596L14.6093 315H12.0657L9.06266 306.311H11.3929L13.3704 313.269L15.3888 306.311ZM21.4172 311.316C21.4774 312.098 21.7071 312.678 22.1064 313.055C22.5112 313.433 23.0281 313.622 23.6572 313.622C24.0565 313.622 24.4394 313.559 24.8059 313.433C25.1724 313.307 25.5416 313.121 25.9136 312.875L26.8162 314.114C26.395 314.469 25.9026 314.748 25.3392 314.951C24.7758 315.148 24.1686 315.246 23.5177 315.246C22.5932 315.246 21.8056 315.055 21.1546 314.672C20.5091 314.289 20.0196 313.753 19.6859 313.064C19.3577 312.374 19.1936 311.576 19.1936 310.668C19.1936 309.798 19.355 309.016 19.6777 308.321C20.0059 307.621 20.4763 307.071 21.089 306.672C21.7071 306.267 22.4346 306.065 23.2715 306.065C24.0592 306.065 24.7457 306.24 25.331 306.59C25.9163 306.94 26.3676 307.446 26.6849 308.108C27.0021 308.764 27.1608 309.546 27.1608 310.454C27.1608 310.766 27.1471 311.053 27.1197 311.316H21.4172ZM23.2797 307.591C22.7382 307.591 22.3006 307.785 21.9669 308.173C21.6387 308.556 21.4473 309.142 21.3926 309.929H25.0521C25.0411 309.18 24.8852 308.603 24.5844 308.198C24.289 307.793 23.8541 307.591 23.2797 307.591ZM29.4148 315V306.311H31.302L31.4579 307.386C31.8298 306.948 32.2483 306.62 32.7132 306.401C33.1782 306.177 33.6787 306.065 34.2148 306.065C34.9915 306.065 35.585 306.289 35.9953 306.737C36.411 307.186 36.6189 307.821 36.6189 308.641V315H34.4527V309.486C34.4527 309.027 34.4226 308.671 34.3625 308.419C34.3078 308.162 34.2038 307.976 34.0507 307.862C33.903 307.741 33.6842 307.681 33.3943 307.681C32.7597 307.681 32.1553 308.067 31.5809 308.838V315H29.4148ZM46.758 314.516C46.4189 314.74 46.0168 314.918 45.5519 315.049C45.0924 315.181 44.6055 315.246 44.0913 315.246C43.3966 315.246 42.8086 315.123 42.3272 314.877C41.8513 314.631 41.4931 314.283 41.2524 313.835C41.0117 313.381 40.8913 312.845 40.8913 312.227V307.845H39.0042V306.311H40.8913V304.399L43.0575 304.136V306.311H45.9293L45.7078 307.845H43.0575V312.218C43.0575 312.672 43.1669 313.003 43.3857 313.211C43.6045 313.414 43.9573 313.515 44.4442 313.515C45.0021 313.515 45.5245 313.384 46.0113 313.121L46.758 314.516ZM62.9009 315.246C61.8835 315.246 61.0192 315.022 60.3081 314.573C59.597 314.125 59.0554 313.457 58.6835 312.571C58.3115 311.685 58.1255 310.597 58.1255 309.306C58.1255 308.058 58.3525 306.992 58.8065 306.106C59.2606 305.214 59.8732 304.541 60.6445 304.087C61.4158 303.633 62.2718 303.406 63.2127 303.406C63.973 303.406 64.624 303.521 65.1655 303.751C65.7125 303.975 66.224 304.309 66.6999 304.752L65.4773 306.007C65.1272 305.695 64.7799 305.466 64.4353 305.318C64.0961 305.17 63.7187 305.096 63.3029 305.096C62.7559 305.096 62.2691 305.241 61.8424 305.531C61.4212 305.816 61.0848 306.272 60.8332 306.902C60.5871 307.531 60.464 308.337 60.464 309.322C60.464 310.339 60.5542 311.16 60.7347 311.784C60.9153 312.402 61.1888 312.85 61.5553 313.129C61.9218 313.408 62.3894 313.548 62.9583 313.548C63.56 313.548 64.118 313.411 64.6322 313.137V310.241H62.9255L62.6958 308.6H66.7737V314.155C66.1884 314.505 65.5812 314.776 64.9522 314.967C64.3286 315.153 63.6448 315.246 62.9009 315.246ZM75.157 306.073C75.4195 306.073 75.6575 306.095 75.8708 306.138C76.0896 306.177 76.3057 306.234 76.519 306.311L76.1334 309.699H74.6893V308.001C74.1368 308.045 73.6527 308.294 73.237 308.748C72.8267 309.202 72.5012 309.817 72.2605 310.594V313.498H73.9918V315H68.8718V313.498H70.0944V307.804H68.8718V306.311H71.7436L72.1457 308.305C72.4684 307.555 72.8705 306.997 73.3518 306.631C73.8387 306.259 74.4404 306.073 75.157 306.073ZM82.2274 301.929C82.4899 301.929 82.7224 301.987 82.9248 302.102C83.1272 302.211 83.2858 302.364 83.4007 302.561C83.5156 302.758 83.573 302.977 83.573 303.217C83.573 303.458 83.5156 303.677 83.4007 303.874C83.2858 304.071 83.1272 304.227 82.9248 304.342C82.7224 304.456 82.4899 304.514 82.2274 304.514C81.9648 304.514 81.7296 304.456 81.5217 304.342C81.3193 304.227 81.1607 304.071 81.0458 303.874C80.931 303.677 80.8735 303.458 80.8735 303.217C80.8735 302.977 80.931 302.758 81.0458 302.561C81.1607 302.364 81.3193 302.211 81.5217 302.102C81.7296 301.987 81.9648 301.929 82.2274 301.929ZM79.0028 306.311H83.6304V313.466H85.9197V315H78.9207V313.466H81.4643V307.845H79.0028V306.311ZM93.5152 302.61L95.6814 302.84V315H93.7614L93.6301 313.974C93.3457 314.374 92.9983 314.685 92.588 314.91C92.1833 315.134 91.7238 315.246 91.2096 315.246C90.1429 315.246 89.3361 314.836 88.7891 314.015C88.2475 313.195 87.9768 312.071 87.9768 310.643C87.9768 309.757 88.1135 308.969 88.387 308.28C88.666 307.585 89.0653 307.044 89.585 306.655C90.1046 306.262 90.7145 306.065 91.4147 306.065C92.2571 306.065 92.9573 306.357 93.5152 306.943V302.61ZM91.9973 307.681C91.4339 307.681 90.999 307.924 90.6927 308.411C90.3863 308.898 90.2332 309.645 90.2332 310.651C90.2332 311.702 90.3699 312.459 90.6434 312.924C90.9224 313.389 91.3217 313.622 91.8414 313.622C92.4814 313.622 93.0393 313.244 93.5152 312.489V308.534C93.094 307.965 92.588 307.681 91.9973 307.681Z" fill="#249CFF"/>
<line x1="166" y1="24" x2="543" y2="24" stroke="#249CFF" stroke-width="2"/>
<line x1="367" y1="1" x2="744" y2="1" stroke="#249CFF" stroke-width="2"/>
<line x1="460" y1="473" x2="720" y2="473" stroke="#249CFF" stroke-width="2"/>
<line x1="768" y1="48" x2="768" y2="272" stroke="#249CFF" stroke-width="2"/>
<line x1="791" y1="185" x2="791" y2="425" stroke="#249CFF" stroke-width="2"/>
</svg>
