<svg width="150" height="150" viewBox="0 0 150 150" fill="none" xmlns="http://www.w3.org/2000/svg">
<g clip-path="url(#clip0_378_262)">
<circle cx="75.1581" cy="80.5951" r="52" transform="rotate(30 75.1581 80.5951)" stroke="#249CFF" stroke-width="2"/>
<path d="M16.208 42.8067C21.6219 34.361 28.7874 27.1772 37.2193 21.7417C45.6511 16.3062 55.1525 12.746 65.08 11.3022" stroke="#6BC4FF" stroke-width="2"/>
<path d="M44.575 133.566C52.7316 138.275 61.8655 141.037 71.2648 141.636C80.6641 142.236 90.0749 140.657 98.7636 137.022" stroke="#6BC4FF" stroke-width="2"/>
<path d="M15.9763 68.4058C18.0313 58.4281 22.5756 49.1319 29.1868 41.3813C35.798 33.6308 44.2615 27.6777 53.7905 24.0752" stroke="#6BC4FF" stroke-width="2"/>
<circle cx="75.1582" cy="80.5947" r="44" transform="rotate(30 75.1582 80.5947)" stroke="#249CFF" stroke-width="2"/>
<circle r="4" transform="matrix(0.866025 0.5 0.5 -0.866025 75.158 80.5952)" stroke="#6BC4FF" stroke-width="2"/>
<path d="M104.622 37.5618L109.122 29.7676L101.328 25.2676L96.8276 33.0618" stroke="#249CFF" stroke-width="2"/>
<path d="M124.268 61.5939L128.846 59.5824L126.834 55.0049L122.257 57.0164" stroke="#249CFF" stroke-width="2"/>
<path d="M67.9146 29.0577L67.3679 24.0877L72.3379 23.541L72.8846 28.511" stroke="#249CFF" stroke-width="2"/>
<rect x="100.998" y="15.8392" width="19" height="8" transform="rotate(30 100.998 15.8392)" stroke="#249CFF" stroke-width="2"/>
<line x1="78.7649" y1="78.626" x2="101.023" y2="66.0735" stroke="#6BC4FF" stroke-width="2"/>
<rect x="37.553" y="57.729" width="5" height="2" transform="rotate(30 37.553 57.729)" fill="#249CFF"/>
<rect x="108.566" y="98.7285" width="5" height="2" transform="rotate(30 108.566 98.7285)" fill="#249CFF"/>
<rect x="97.3408" y="43.1729" width="5" height="2" transform="rotate(120 97.3408 43.1729)" fill="#249CFF"/>
<rect x="56.3411" y="114.187" width="5" height="2" transform="rotate(120 56.3411 114.187)" fill="#249CFF"/>
</g>
<defs>
<clipPath id="clip0_378_262">
<rect width="150" height="150" fill="white"/>
</clipPath>
</defs>
</svg>
